<svg xmlns="http://www.w3.org/2000/svg" xmlns:xlink="http://www.w3.org/1999/xlink" xml:space="preserve" viewBox="0 0 64 64"><switch><g><defs><path id="a" d="M2.9 24.8C6.9 8.7 23.1-1.1 39.2 2.9c16.1 4 25.9 20.2 21.9 36.3-4 16.1-20.2 25.9-36.3 21.9-16.1-4-25.9-20.2-21.9-36.3"/></defs><clipPath id="b"><use xlink:href="#a" overflow="visible"/></clipPath><g clip-path="url(#b)"><defs><path id="c" d="M-21.8.6H85.9v62.8H-21.8z"/></defs><clipPath id="d"><use xlink:href="#c" overflow="visible"/></clipPath><path fill="#FFF" d="M-21.8.6H85.9v62.8H-21.8z" clip-path="url(#d)"/><path fill="#DB8F47" d="M-21.8.6H85.9v20.9H-21.8z" clip-path="url(#d)"/><path fill="#3F8344" d="M-21.8 42.5H85.9v20.9H-21.8z" clip-path="url(#d)"/><g clip-path="url(#d)"><defs><path id="e" d="M-21.8.6H85.9v62.8H-21.8z"/></defs><clipPath id="f"><use xlink:href="#e" overflow="visible"/></clipPath><path fill="#28305C" d="M32 22.6c-5.2 0-9.4 4.2-9.4 9.4s4.2 9.4 9.4 9.4 9.4-4.2 9.4-9.4-4.2-9.4-9.4-9.4m0 .9-.2 4.7.3 2.7.2-2.7-.3-4.7h.7c0 .2.2.4.4.4s.4-.2.4-.4c.2.1.5.1.7.2l-1.5 4.5-.4 2.8.9-2.6 1-4.6c.2.1.5.1.7.2v.1c0 .2.2.4.4.4s.3-.1.4-.2l.6.3-2.6 4-1.1 2.5 1.6-2.2 2.2-4.2c.2.1.4.2.6.4-.1.1-.1.2-.1.3 0 .2.2.4.4.4.1 0 .2-.1.3-.2.2.2.4.3.5.5l-3.5 3.2-1.7 2.1 2.1-1.7 3-3.7.5.5c-.1.1-.1.2-.1.3 0 .2.2.4.4.4.1 0 .2 0 .2-.1.1.2.3.4.4.6l-4.2 2.2-2.2 1.6 2.5-1.1 4-2.6c.1.2.2.5.3.7-.1.1-.2.2-.2.4s.2.4.4.4h.2c.1.2.1.4.2.7l-4.6 1-2.8.7 2.7-.5 4.5-1.4c.1.2.1.5.2.7-.2 0-.3.2-.3.4s.2.4.4.4v.7l-4.7-.2-2.7.2 2.7.3 4.7-.3v.7c-.2 0-.4.2-.4.4s.1.4.3.4c0 .2-.1.5-.2.7l-1.6-.5-2.9-.9-2.7-.5 2.5.9 4.6 1c-.1.2-.1.5-.2.7h-.2c-.2 0-.4.2-.4.4v.2c0 .1.1.1.1.2l-.3.6-4-2.6-2.5-1.1 1.3.9.9.7 4.2 2.2c-.1.2-.3.4-.4.6-.1 0-.1-.1-.2-.1-.2 0-.4.2-.4.4 0 .1.1.2.1.3-.2.2-.3.4-.5.5l-3.2-3.5-2.1-1.7L34 35l4 3-.5.5c-.1-.1-.2-.1-.2-.1-.2 0-.4.2-.4.4v.2c-.2.1-.4.3-.6.4l-2.2-4.2-1.6-2.2 1.1 2.5 2.6 4-.6.3c-.1-.2-.2-.2-.4-.2s-.4.2-.4.4v.2c-.2.1-.4.2-.7.2l-1-4.6-.9-2.5.5 2.7 1.5 4.5c-.2.1-.5.1-.7.2 0-.2-.2-.3-.4-.3s-.4.2-.4.4v.1H32l.2-4.7-.2-3.1-.2 2.7.2 4.7h-.7v-.1c0-.2-.2-.4-.4-.4s-.4.2-.4.3c-.2 0-.5-.1-.7-.2l1.5-4.5.5-2.7-.9 2.5-1 4.6c-.2-.1-.5-.1-.7-.2v-.2c0-.2-.2-.4-.4-.4s-.3.1-.4.2l-.6-.3 2.6-4 1.1-2.5-1.6 2.2-2.2 4.2c-.2-.1-.4-.3-.6-.4 0-.1.1-.1.1-.2 0-.2-.2-.4-.4-.4-.1 0-.2.1-.3.2-.2-.2-.4-.3-.5-.5l3.5-3.2 1.7-2.1-2.1 1.7L26 38c-.2-.2-.3-.4-.5-.5.1-.1.2-.2.2-.3 0-.2-.2-.4-.4-.4-.1 0-.2 0-.2.1-.1-.2-.3-.4-.4-.6l4.2-2.2 2.2-1.5-2.5 1.1-4 2.6-.3-.6c.2-.1.3-.2.3-.4s-.2-.4-.4-.4H24c-.1-.2-.2-.5-.2-.7l4.6-1 2.6-.9-2.7.5-4.5 1.5c-.1-.2-.1-.5-.2-.7.2 0 .3-.2.3-.4s-.2-.4-.4-.4v-.7l4.7.3 2.7-.3-2.7-.2-4.7.1v-.7h.1c.2 0 .4-.2.4-.4s-.2-.4-.4-.4c.1-.2.1-.5.2-.7l4.5 1.4 2.7.5-2.6-.9-4.6-1c.1-.2.1-.5.2-.7h.1c.2 0 .4-.2.4-.4s-.1-.3-.2-.4c.1-.2.2-.4.3-.7l4 2.6 2.5 1.1-2.2-1.6-4.2-2.2c.1-.2.3-.4.4-.6.1.1.2.1.2.1.2 0 .4-.2.4-.4 0-.1-.1-.2-.1-.3.1-.2.3-.3.5-.5l3.2 3.5 2.1 1.7-1.7-2.1L26 26l.5-.5c.1.1.2.2.3.2.2 0 .4-.2.4-.4 0-.1 0-.2-.1-.2.2-.1.4-.3.6-.4l2.2 4.2 1.6 2.2-1.1-2.5-2.6-4 .6-.3c.1.2.2.3.4.3s.4-.2.4-.4V24c.2-.1.5-.2.7-.2l1 4.6.9 2.6-.5-2.7-1.5-4.5c.2-.1.5-.1.7-.2 0 .2.2.3.4.3s.4-.2.4-.4h.7" clip-path="url(#f)"/><path fill="#FFF" d="M32 30.6c.8 0 1.4.6 1.4 1.4 0 .8-.6 1.4-1.4 1.4-.8 0-1.4-.6-1.4-1.4 0-.8.6-1.4 1.4-1.4" clip-path="url(#f)"/><path fill="#28305C" d="M32 30.9c.6 0 1.1.5 1.1 1.1 0 .6-.5 1.1-1.1 1.1-.6 0-1.1-.5-1.1-1.1 0-.6.5-1.1 1.1-1.1" clip-path="url(#f)"/></g></g></g></switch></svg>