<svg xmlns="http://www.w3.org/2000/svg" width="60.003" height="59.999"><defs><clipPath id="a"><path fill="none" d="M845.383 12.855v34.279a29.994 29.994 0 1 0 0-34.279" data-name="Path 4012"/></clipPath></defs><g data-name="Group 6527"><path fill="#fff" d="M26.907 42.03a12.633 12.633 0 1 1 8.913-21.585 15.639 15.639 0 1 0 0 17.9 12.594 12.594 0 0 1-8.913 3.682" data-name="Path 3998"/><path fill="#fff" d="m42.053 22.689 2.918 4.209 4.909-1.474-3.1 4.08 2.917 4.214-4.836-1.7-3.1 4.076.114-5.125-4.836-1.695 4.91-1.465Z" data-name="Path 3999"/><path fill="#be0930" d="M.89 22.799a29.993 29.993 0 1 1 21.907 36.319A29.988 29.988 0 0 1 .89 22.799" data-name="Path 4011"/><g clip-path="url(#a)" data-name="Group 6494" transform="translate(-839.998 -.001)"><path fill="#be0930" d="M845.383.001H948.22v30.006H845.383z" data-name="Rectangle 1786"/><path fill="#fff" d="M845.383 30.007H948.22v29.994H845.383z" data-name="Rectangle 1787"/></g><g clip-path="url(#a)" data-name="Group 6496" transform="translate(-839.998 -.001)"><path fill="#fff" d="M876.241 15a11.279 11.279 0 1 1-11.278-11.278A11.281 11.281 0 0 1 876.241 15" data-name="Path 4013"/><path fill="#be0930" d="M879.787 15a10.66 10.66 0 1 1-10.658-10.655A10.651 10.651 0 0 1 879.787 15" data-name="Path 4014"/><path fill="#fff" d="m866.358 15.273-1.529-1.173-1.538 1.173.593-1.891-1.536-1.173 1.9.012.584-1.9.586 1.9 1.892-.012-1.538 1.173Z" data-name="Path 4015"/><path fill="#fff" d="m878.384 15.273-1.535-1.173-1.529 1.173.59-1.891-1.541-1.173 1.9.012.58-1.9.584 1.9 1.9-.012-1.536 1.173Z" data-name="Path 4016"/><path fill="#fff" d="m872.372 10.82-1.529-1.185-1.529 1.185.584-1.9-1.536-1.161h1.9l.584-1.9.586 1.9 1.9-.012-1.537 1.173Z" data-name="Path 4017"/><path fill="#fff" d="m868.611 22.418-1.538-1.173-1.529 1.173.59-1.9-1.534-1.164h1.9l.58-1.9.584 1.9h1.9l-1.535 1.161Z" data-name="Path 4018"/><path fill="#fff" d="m876.133 22.418-1.533-1.173-1.529 1.173.593-1.9-1.536-1.161h1.9l.574-1.9.587 1.9h1.894l-1.535 1.161Z" data-name="Path 4019"/></g><path fill="#fff" d="M5.385 30.005H.002a30.427 30.427 0 0 0 5.38 17.124c5.743 8.075 0-17.124 0-17.124" data-name="Path 4021"/></g></svg>