<svg xmlns="http://www.w3.org/2000/svg" width="60" height="60"><g data-name="Group 6531"><path fill="#c41912" d="M30-.001a30 30 0 1 1-30 30 30 30 0 0 1 30-30" data-name="Path 3914"/><path fill="#faca16" d="m17.156 10.788 1.736 5.336h5.6l-4.53 3.293 1.733 5.332-4.538-3.3-4.53 3.3 1.729-5.332-4.526-3.293h5.6Z" data-name="Path 3915"/><path fill="#faca16" d="m30.908 8.482-.169 1.852 1.71.728-1.811.416-.169 1.853-.948-1.594-1.812.409 1.219-1.4-.949-1.594 1.71.75Z" data-name="Path 3916"/><path fill="#faca16" d="m36.866 14.175-.874 1.643 1.294 1.338-1.83-.322-.874 1.635-.255-1.838-1.822-.322 1.668-.814-.262-1.838 1.289 1.342Z" data-name="Path 3917"/><path fill="#faca16" d="m37.425 22.751-1.466 1.125.626 1.744-1.534-1.043-1.474 1.122.525-1.785-1.533-1.042 1.875-.06.517-1.785.627 1.751Z" data-name="Path 3918"/><path fill="#faca16" d="m32.479 28.875-1.789.491-.09 1.853-1.024-1.549-1.788.491 1.158-1.455-1.016-1.549 1.736.653 1.159-1.448-.083 1.853Z" data-name="Path 3919"/></g></svg>