<svg xmlns="http://www.w3.org/2000/svg" xmlns:xlink="http://www.w3.org/1999/xlink" xml:space="preserve" viewBox="0 0 64 64"><switch><g><defs><path id="a" d="M2.9 24.8C6.9 8.7 23.1-1.1 39.2 2.9c16.1 4 25.9 20.2 21.9 36.3-4 16.1-20.2 25.9-36.3 21.9-16.1-4-25.9-20.2-21.9-36.3"/></defs><clipPath id="b"><use xlink:href="#a" overflow="visible"/></clipPath><g clip-path="url(#b)"><path fill="#C62335" d="M-14.6 1.8H89.1v4.3H-14.6z"/><path fill="#FFF" d="M-14.6 6.1H89.1v4.3H-14.6z"/><path fill="#C62335" d="M-14.6 10.4H89.1v4.3H-14.6z"/><path fill="#FFF" d="M-14.6 14.7H89.1V19H-14.6z"/><path fill="#C62335" d="M-14.6 19H89.1v4.3H-14.6z"/><path fill="#FFF" d="M-14.6 23.4H89.1v4.3H-14.6z"/><path fill="#C62335" d="M-14.6 27.7H89.1V32H-14.6z"/><path fill="#FFF" d="M-14.6 32H89.1v4.3H-14.6z"/><path fill="#C62335" d="M-14.6 36.3H89.1v4.3H-14.6z"/><path fill="#FFF" d="M-14.6 40.6H89.1v4.3H-14.6z"/><path fill="#C62335" d="M-14.6 45H89.1v4.3H-14.6z"/><path fill="#FFF" d="M-14.6 49.3H89.1v4.3H-14.6z"/><path fill="#C62335" d="M-14.6 53.6H89.1v4.3H-14.6z"/><path fill="#FFF" d="M-14.6 57.9H89.1v4.3H-14.6z"/><path fill="#29398E" d="M-26.8 1.8h60.5v34.6h-60.5z"/><path fill="#EBC933" d="M13.4 23.1c0-3.5 2.8-6.3 6.3-6.3 1.2 0 2.3.3 3.3.9-1.3-1.1-3-1.8-4.8-1.8-4 0-7.2 3.2-7.2 7.2s3.2 7.2 7.2 7.2c1.8 0 3.5-.7 4.8-1.8-1 .6-2.1.9-3.3.9-3.4 0-6.3-2.8-6.3-6.3"/><path fill="#EBC933" d="m27.9 23.1 3.4-1.3-3.7.3 2.6-2.7-3.2 1.8 1.1-3.5-2.1 3.1-.5-3.7-.4 2.6-.1.8-.1.3-2-3.1 1.1 3.5-3.2-1.8 2.5 2.7-3.7-.3 3.5 1.3-3.5 1.4 3.7-.3-2.5 2.7L24 25l-1.1 3.5 2-3 .1.3.1.7.4 2.6.5-3.6 2.1 3L27 25l3.2 1.9-2.6-2.7 3.7.3z"/><path fill="none" d="M-14.6 1.8H89.1v60.5H-14.6z"/><path fill="none" d="M-14.6 1.8H89.1v60.5H-14.6z"/></g></g></switch></svg>