<svg xmlns="http://www.w3.org/2000/svg" width="60" height="60.001"><g data-name="Group 6529"><path fill="#df130d" d="M22.795 59.114a29.993 29.993 0 1 1 36.32-21.908 29.99 29.99 0 0 1-36.32 21.908" data-name="Path 3971"/><path fill="#df130d" d="M19.926 58.251V1.747a30 30 0 0 0 0 56.5" data-name="Path 3972"/><path fill="#f6f6f6" d="m36.167.647-.192-.04-.334-.066-.194-.042-.346-.057-.175-.03q-.216-.036-.432-.069L34.409.33c-.174-.026-.347-.05-.52-.073l-.137-.018-.382-.046-.181-.02-.341-.035-.189-.017c-.115-.011-.23-.02-.345-.029l-.175-.014c-.132-.009-.264-.018-.4-.025l-.12-.008c-.173-.01-.347-.018-.52-.024h-.084c-.143 0-.287-.009-.43-.012h-1.213l-.38.01h-.132q-.515.02-1.026.056l-.133.013c-.125.009-.249.019-.374.03l-.163.016-.353.035-.161.018c-.124.014-.249.029-.373.045l-.131.016q-.51.066-1.016.149l-.091.016c-.136.023-.272.046-.408.071l-.14.026-.364.071-.145.029c-.125.026-.249.052-.373.08-.041.009-.083.017-.124.027-.152.034-.3.069-.455.105l-.029.008c-.159.038-.318.078-.476.118q-1.319.341-2.6.8v56.5q1.4.5 2.869.863a29.9 29.9 0 0 0 11.913.513l.051-.008c.141-.023.281-.046.421-.071l.089-.016q.2-.035.393-.072l.117-.023.37-.075.139-.03.35-.077.163-.038.327-.078.247-.062.368-.1.363-.1.159-.047c.115-.032.229-.065.344-.1l.159-.049.341-.106.157-.051.341-.113.153-.053q.171-.058.342-.12l.08-.028.211-.076V1.863c-.07-.026-.141-.049-.211-.074-.176-.063-.353-.122-.531-.183l-.051-.017a27.198 27.198 0 0 0-.7-.226l-.1-.031a33.88 33.88 0 0 0-.662-.194l-.136-.045q-.4-.109-.8-.209c-.173-.043-.346-.083-.518-.123l-.166-.037-.355-.077" data-name="Path 3973"/><path fill="#df130d" d="M30.301 41.279h.388l-.125-5.155.359-.308c1.616.193 3.066.367 4.683.563l-.412-1.409a.662.662 0 0 1 .213-.669l4.695-3.986-.973-.479c-.426-.16-.306-.41-.153-1.015l.715-2.724-2.726.6a.416.416 0 0 1-.483-.3l-.353-1.282-2.156 2.524c-.307.405-.928.405-.735-.531l.923-5.113-1.237.67c-.346.2-.694.235-.889-.127l-1.734-3.33-1.736 3.327c-.194.362-.542.328-.888.127l-1.235-.67.921 5.113c.192.936-.428.936-.735.531l-2.157-2.524-.35 1.282a.418.418 0 0 1-.484.3l-2.728-.6.717 2.724c.154.6.273.855-.154 1.015l-.974.479 4.7 3.986a.664.664 0 0 1 .214.669l-.411 1.412c1.615-.2 3.065-.37 4.681-.563l.36.308-.125 5.155Z" data-name="Path 3974"/></g></svg>