<svg xmlns="http://www.w3.org/2000/svg" xmlns:xlink="http://www.w3.org/1999/xlink" xml:space="preserve" viewBox="0 0 64 64"><switch><g><defs><circle id="a" cx="-52" cy="32" r="30"/></defs><clipPath id="b"><use xlink:href="#a" overflow="visible"/></clipPath><g clip-path="url(#b)"><defs><path id="c" d="M-104.2 1.5H.3v60.9h-104.5z"/></defs><clipPath id="d"><use xlink:href="#c" overflow="visible"/></clipPath><path fill="#BE1E2B" d="M-104.2 1.5H.3v60.9h-104.5z" clip-path="url(#d)"/><path fill="#FFF" d="M-104.2 11.7H.3v40.6h-104.5z" clip-path="url(#d)"/><path fill="#273163" d="M-104.2 21.8H.3v20.3h-104.5z" clip-path="url(#d)"/></g><defs><path id="e" d="M86.9 24.8c4-16.1 20.2-25.9 36.3-21.9 16.1 4 25.9 20.2 21.9 36.3-4 16.1-20.2 25.9-36.3 21.9-16.1-4-25.9-20.2-21.9-36.3"/></defs><clipPath id="f"><use xlink:href="#e" overflow="visible"/></clipPath><g clip-path="url(#f)"><defs><path id="g" d="M62.2.6h107.7v62.8H62.2z"/></defs><clipPath id="h"><use xlink:href="#g" overflow="visible"/></clipPath><path fill="#FFF" d="M62.2.6h107.7v62.8H62.2z" clip-path="url(#h)"/><path fill="#DB8F47" d="M62.2.6h107.7v20.9H62.2z" clip-path="url(#h)"/><path fill="#3F8344" d="M62.2 42.5h107.7v20.9H62.2z" clip-path="url(#h)"/></g><defs><path id="i" d="M2.9 24.8C6.9 8.7 23.1-1.1 39.2 2.9c16.1 4 25.9 20.2 21.9 36.3-4 16.1-20.2 25.9-36.3 21.9-16.1-4-25.9-20.2-21.9-36.3"/></defs><clipPath id="j"><use xlink:href="#i" overflow="visible"/></clipPath><g clip-path="url(#j)"><defs><path id="k" d="M1.3.2h61.3v63.5H1.3z"/></defs><clipPath id="l"><use xlink:href="#k" overflow="visible"/></clipPath><path fill="#0A0000" d="M1.3.2h20.4v63.5H1.3z" clip-path="url(#l)"/><path fill="#F5E142" d="M21.8.2h20.4v63.5H21.8z" clip-path="url(#l)"/><path fill="#C8383B" d="M42.2.2h20.4v63.5H42.2z" clip-path="url(#l)"/></g></g></switch></svg>