<svg xmlns="http://www.w3.org/2000/svg" xmlns:xlink="http://www.w3.org/1999/xlink" xml:space="preserve" viewBox="0 0 64 64"><switch><g><defs><path id="a" d="M-81.1 24.8c4-16.1 20.2-25.9 36.3-21.9 16.1 4 25.9 20.2 21.9 36.3-4 16.1-20.2 25.9-36.3 21.9-16.1-4-25.9-20.2-21.9-36.3"/></defs><clipPath id="b"><use xlink:href="#a" overflow="visible"/></clipPath><g clip-path="url(#b)"><defs><path id="c" d="M-105.9 0H1.8v62.8h-107.7z"/></defs><clipPath id="d"><use xlink:href="#c" overflow="visible"/></clipPath><path fill="#B11831" d="M-105.9 0H1.8v31.4h-107.7z" clip-path="url(#d)"/><path fill="#FFF" d="M-105.9 31.4H1.8v31.4h-107.7z" clip-path="url(#d)"/></g><defs><path id="e" d="M2.9 24.8C6.9 8.7 23.1-1.1 39.2 2.9c16.1 4 25.9 20.2 21.9 36.3-4 16.1-20.2 25.9-36.3 21.9-16.1-4-25.9-20.2-21.9-36.3"/></defs><clipPath id="f"><use xlink:href="#e" overflow="visible"/></clipPath><g clip-path="url(#f)"><defs><path id="g" d="M-9.9.2h109v63.6h-109z"/></defs><clipPath id="h"><use xlink:href="#g" overflow="visible"/></clipPath><path fill="#C73232" d="M28.2.2H99v63.6H28.2z" clip-path="url(#h)"/><path fill="#2D653C" d="M-9.9.2h38.1v63.6H-9.9z" clip-path="url(#h)"/><g clip-path="url(#h)"><defs><path id="i" d="M-9.9.2h109v63.6h-109z"/></defs><clipPath id="j"><use xlink:href="#i" overflow="visible"/></clipPath><path fill="#E9E744" d="M40.6 41.9c-4.8-.2-26.8-13.9-26.9-16.1l1.2-2c2.2 3.2 24.7 16.5 26.9 16.1l-1.2 2z" clip-path="url(#j)"/><path fill="#E9E744" d="M14.6 23.5c-.4 1.2 5.7 5 13.2 9.5 7.4 4.5 13.8 7.3 14.3 6.9 0-.1.2-.4.2-.4-.1.1-.3.2-.6.1-2-.6-7.2-3-13.7-6.9-6.5-3.9-12.1-7.6-13-9.1-.1-.1-.1-.3-.1-.5l-.3.4zm26.1 18.4c-.1.1-.2.2-.5.1-1.8-.2-7.2-2.9-13.7-6.7-7.5-4.5-13.7-8.6-13-9.7l.2-.3c-.6 1.8 12.2 9.2 13 9.6 7.4 4.6 13.7 7.3 14.2 6.6l-.2.4z" clip-path="url(#j)"/><g clip-path="url(#j)"><path fill="#0A0000" d="M40.4 42.1h-.2c-1.8-.2-7.3-2.9-13.7-6.7-8.5-5.1-12.8-8.2-13.1-9.4v-.3l.2-.3v.1l-.1.3c0 .1-.1.2 0 .3.3 1.2 4.5 4.2 13 9.3 6.4 3.8 11.8 6.5 13.7 6.7.3 0 .4 0 .5-.1l.1-.2h-.2c-1.5 0-7.1-2.5-13.9-6.7-.1 0-.3-.1-.5-.3-8.3-4.9-12.5-8-12.5-9.2.2.8 2.1 3 12.6 9.1.3.2.4.3.5.3 6.8 4.2 12.3 6.7 13.8 6.7.2 0 .3 0 .3-.1v.1l-.1.3c-.1.1-.3.1-.4.1zm1.5-2.1c-1.1 0-7.2-2.7-14.2-7-8-4.9-13.6-8.4-13.2-9.5l.2-.4-.1.3c-.5 1.2 6.8 5.6 13.1 9.5 7.1 4.3 13.1 7 14.2 7.1l.1-.1c0-.1.1-.2.1-.2h-.5c-2.2-.6-7.6-3.2-13.7-6.9-5.9-3.6-12.1-7.5-13-9.1-.1-.1-.1-.3-.1-.5.1.2.1.3.2.4.9 1.6 7.4 5.7 13 9.1 6.1 3.7 11.5 6.3 13.7 6.9.3.1.5.1.6-.1.1 0 .1 0-.1.4-.1.1-.2.1-.3.1z"/></g><path fill="#E9E744" d="M28.2 27.1c4.8 0 10.7-.7 14.1-2l-.7-1.2c-2 1.1-8 1.8-13.4 2-6.5-.1-11-.7-13.3-2.2l-.7 1.3c4.2 1.7 8.5 2.1 14 2.1z" clip-path="url(#j)"/><path fill="#E9E744" d="M42.6 25.1c-.1.2-2.3 1-5.6 1.5-2.2.3-5.1.6-8.7.6-3.4 0-6.2-.2-8.4-.5-3.4-.5-5.2-1.3-5.9-1.6.1-.1.1-.2.2-.3 1.9.7 3.7 1.2 5.8 1.5 2.1.3 4.9.5 8.3.5 3.6 0 6.5-.3 8.7-.6 3.4-.5 5.2-1.2 5.5-1.6l.1.5zm-.7-1.2c-.4.3-2.2.9-5.4 1.4-2.1.3-4.8.6-8.3.6-3.3 0-6-.2-8-.5-3.2-.4-5-1.2-5.6-1.4.1-.1.1-.2.2-.3.5.2 2.1.9 5.4 1.4 2 .3 4.7.5 8 .5 3.4 0 6.1-.3 8.2-.6 3.2-.4 4.9-1.3 5.2-1.5l.3.4z" clip-path="url(#j)"/><g clip-path="url(#j)"><path fill="#0A0000" d="M28.1 27.3c-2.9 0-5.7-.2-8.3-.5-3.3-.5-5.1-1.3-5.8-1.5v-.2l.1-.2c1.9.7 3.6 1.2 5.8 1.5 2.6.4 5.4.5 8.2.5 3 0 5.8-.2 8.7-.6 3.3-.5 5.2-1.2 5.4-1.6l.3.4c-.1.3-2.4 1-5.6 1.6-2.7.4-5.7.6-8.7.6h-.1zm-14-2.4-.1.3c.7.2 2.5 1 5.8 1.5 2.6.3 5.4.5 8.2.5h.1c3.1 0 6-.2 8.7-.6 3.4-.6 5.5-1.3 5.6-1.5l-.2-.4c-.2.3-1.9 1-5.4 1.6-2.8.5-5.7.7-8.6.7-2.9 0-5.7-.2-8.3-.5-2.2-.4-4-.9-5.8-1.6zM28.2 26c-2.9 0-5.7-.2-8-.5-2.9-.4-4.5-1-5.3-1.3l-.3-.1.1-.3.1-.1c.3.1 1.9.9 5.4 1.4 1.6.2 4.3.5 7.9.5 2.9 0 5.5-.2 8.3-.6 3.1-.4 4.9-1.2 5.2-1.5l.3.4c-.4.3-2.1 1-5.4 1.5-2.7.4-5.4.6-8.3.6zm-13.4-2.3-.1.3h.2c.8.3 2.5.9 5.3 1.3 2.3.3 5.1.5 8 .5h.1c2.9 0 5.5-.2 8.3-.6 3.2-.5 5-1.2 5.3-1.4l-.2-.3c-.2.2-1.8 1-5.2 1.5-2.8.4-5.4.6-8.2.6-3.7 0-6.4-.3-8-.5-3.6-.5-5.2-1.2-5.5-1.4z"/></g><path fill="#E9E744" d="M12.5 32.9c2.9 1.6 9.5 2.4 15.7 2.4 5.7 0 13-.9 15.8-2.3l-.1-1.6C43 32.8 35.1 34 28.2 34c-7-.1-13.5-1.1-15.7-2.5v1.4z" clip-path="url(#j)"/><path fill="#E9E744" d="M44.1 32.7v.4c-.4.5-3 1.2-6.3 1.8-2.5.4-5.7.7-9.7.7-3.8 0-6.9-.3-9.2-.6-3.7-.5-6.1-1.5-6.6-1.8v-.4c1.4 1 5.3 1.7 6.7 1.9 2.4.4 5.4.6 9.2.6 4 0 7.2-.3 9.7-.7 2.2-.5 5.5-1.3 6.2-1.9zm0-1.4v.4c-.4.5-3 1.2-6.3 1.8-2.5.4-5.7.7-9.7.7-3.8 0-6.9-.3-9.2-.6-3.7-.5-6.1-1.5-6.6-1.8v-.4c1.4 1 5.3 1.7 6.7 1.9 2.4.4 5.4.6 9.2.6 4 0 7.2-.3 9.7-.7 2.2-.4 5.5-1.3 6.2-1.9z" clip-path="url(#j)"/><g clip-path="url(#j)"><path fill="#0A0000" d="M28.1 35.5c-3.4 0-6.5-.2-9.2-.6-3.6-.5-6-1.4-6.6-1.8v-.5c1.5.9 5.5 1.6 6.7 1.8 2.7.4 5.8.6 9.2.6 3.6 0 6.8-.2 9.7-.7 2.3-.3 5.6-1.2 6.3-1.8l.1.4c-.4.5-3.1 1.3-6.3 1.8-3.1.6-6.3.8-9.9.8zm-15.9-2.8.1.4c.3.2 2.7 1.2 6.6 1.7 2.7.4 5.8.6 9.2.6 3.6 0 6.8-.2 9.7-.7 3.1-.5 5.8-1.3 6.2-1.8v-.3c-.6.6-3.9 1.5-6.3 1.8-2.9.4-6.1.7-9.7.7-3.4 0-6.5-.2-9.2-.6-1.4-.2-5.1-.9-6.6-1.8zm15.9 1.5c-3.4 0-6.5-.2-9.2-.6-3.6-.5-6-1.4-6.6-1.8v-.5c1.5.9 5.5 1.6 6.7 1.8 2.7.4 5.8.6 9.2.6 3.6 0 6.8-.2 9.7-.7 2.3-.3 5.6-1.2 6.3-1.8l.1.4c-.4.5-3.1 1.3-6.3 1.8-3 .6-6.3.8-9.9.8zm-15.9-2.9.1.4c.3.2 2.6 1.2 6.6 1.7 2.7.4 5.9.6 9.2.6 3.6 0 6.9-.2 9.7-.7 3.2-.5 5.8-1.3 6.2-1.8v-.4c-.6.6-3.9 1.5-6.3 1.8-2.9.4-6.1.7-9.7.7-3.4 0-6.5-.2-9.2-.6-1.4-.1-5.1-.7-6.6-1.7z"/></g><path fill="#E9E744" d="M28.2 41.6c-6.8 0-12.6-1.9-13.8-2.1l.9 1.4c2.2.9 7.9 2.3 13 2.1 5.2-.1 9.7-.6 12.9-2.1l.9-1.5c-2.3 1-9.6 2.2-13.9 2.2z" clip-path="url(#j)"/><path fill="#E9E744" d="M41.4 40.5c-.1.2-.3.4-.4.6-1.5.5-3.9 1.1-4.9 1.2-2 .4-5.2.7-8 .7-6-.1-10.9-1.3-13.3-2.3l-.2-.3.3.1C19 42 23.7 42.6 28 42.7c2.8 0 5.6-.3 7.8-.7 3.5-.7 4.9-1.2 5.3-1.4l.3-.1zm.8-1.3c-.1.2-.2.4-.3.5-.8.3-3 .9-6.1 1.4-2.1.3-3.4.6-7.5.6-7.8-.2-12.8-1.7-14-2.1l-.3-.3c4.5 1.2 9.1 2 14.2 2.1 3.8-.1 5.4-.4 7.5-.6 3.7-.6 5.6-1.2 6.1-1.4l.4-.2z" clip-path="url(#j)"/><g clip-path="url(#j)"><path fill="#0A0000" d="M28.2 43.2c-6.1-.1-11-1.3-13.3-2.3l-.2-.3.1-.1.3.1c3.7 1.3 8.1 2 13.1 2.2 3.1 0 6-.4 7.8-.7 3.9-.8 5-1.3 5.3-1.4h.1c-.1.2-.3.4-.4.6-1.5.5-3.9 1.1-4.9 1.3-2.1.3-5.2.6-7.9.6zm-13.5-2.7.2.3c2.4 1 7.5 2.2 13.2 2.3 2.7 0 5.9-.3 8-.7 1-.2 3.4-.7 4.9-1.2.1-.1.2-.3.3-.4-.3.2-1.6.7-5.3 1.4-1.8.3-4.7.7-7.7.7-5.2-.1-9.6-.9-13.3-2.2l-.3-.2zm13.5 1.3c-6.9-.2-11.8-1.4-14-2.1l-.2-.4c5.2 1.3 9.7 1.9 14.2 2 3.4-.1 5-.3 6.8-.6l.7-.1c3.5-.6 5.4-1.1 6-1.3l.5-.2-.4.2c-.7.2-2.6.8-6.1 1.4l-.7.1c-1.8.2-3.4.5-6.8.6-4.5-.1-9-.7-14.2-2.1l.2.3c2.3.7 7.1 1.9 14 2.2 3.5-.2 5-.4 6.6-.6l.9-.1c2.8-.4 5.1-1 6.1-1.4l.3-.5-.2.6c-1.1.4-3.3 1-6.2 1.4l-.9.1c-1.6.2-3 .4-6.6.5z"/></g><path fill="#E9E744" d="M28.2 17.9c7.8 0 14.1 6.4 14.1 14.2s-6.3 14-14.1 14S14 39.8 14 32s6.4-14.1 14.2-14.1zm0-1.4c8.5 0 15.5 7 15.5 15.5 0 8.6-7 15.5-15.5 15.5s-15.5-7-15.5-15.5c0-8.6 6.9-15.5 15.5-15.5z" clip-path="url(#j)"/><path fill="#E9E744" d="M28.2 16.3c8.7 0 15.7 7.1 15.7 15.7 0 8.7-7.1 15.7-15.7 15.7-8.7 0-15.7-7.1-15.7-15.7s7-15.7 15.7-15.7zm0 .3c8.4 0 15.4 6.9 15.4 15.4s-7 15.4-15.4 15.4S12.8 40.5 12.8 32c0-8.4 6.9-15.4 15.4-15.4z" clip-path="url(#j)"/><g clip-path="url(#j)"><path fill="#0A0000" d="M28.2 47.8c-8.7 0-15.8-7.1-15.8-15.8 0-8.7 7.1-15.8 15.8-15.8C36.9 16.2 44 23.3 44 32c-.1 8.7-7.1 15.8-15.8 15.8zm0-31.5c-8.6 0-15.7 7-15.7 15.7s7 15.7 15.7 15.7c8.6 0 15.7-7 15.7-15.7 0-8.6-7.1-15.7-15.7-15.7zm0 31.2c-8.5 0-15.4-6.9-15.4-15.4s6.9-15.4 15.4-15.4 15.4 6.9 15.4 15.4c0 8.4-6.9 15.4-15.4 15.4zm0-30.8c-8.5 0-15.3 6.9-15.3 15.3 0 8.5 6.9 15.3 15.3 15.3S43.5 40.4 43.5 32s-6.9-15.3-15.3-15.3z"/></g><path fill="#E9E744" d="M28.2 17.6c7.9 0 14.4 6.5 14.4 14.4s-6.5 14.4-14.4 14.4S13.8 39.9 13.8 32s6.5-14.4 14.4-14.4zm0 .3c7.7 0 14.1 6.3 14.1 14.1 0 7.7-6.4 14.1-14.1 14.1-7.7 0-14.1-6.3-14.1-14.1 0-7.7 6.4-14.1 14.1-14.1z" clip-path="url(#j)"/><g clip-path="url(#j)"><path fill="#0A0000" d="M28.2 46.5c-8 0-14.5-6.5-14.5-14.5s6.5-14.5 14.5-14.5S42.6 24 42.6 32s-6.4 14.5-14.4 14.5zm0-28.9c-7.9 0-14.4 6.4-14.4 14.4 0 7.9 6.4 14.4 14.4 14.4 7.9 0 14.3-6.4 14.3-14.4 0-7.9-6.4-14.4-14.3-14.4zm0 28.5c-7.8 0-14.1-6.3-14.1-14.1s6.3-14.1 14.1-14.1S42.3 24.2 42.3 32 36 46.1 28.2 46.1zm0-28.1c-7.7 0-14 6.3-14 14s6.3 14 14 14 14-6.3 14-14-6.3-14-14-14z"/></g><path fill="#E9E744" d="M27.5 16.2h1.4v31.7h-1.4z" clip-path="url(#j)"/><path fill="#E9E744" d="M28.7 16h.3v32h-.3V16zm-1.4 0h.3v32h-.4V16h.1z" clip-path="url(#j)"/><g clip-path="url(#j)"><path fill="#0A0000" d="M29 48.1h-.3v-32h.4v32c0-.1 0-.1-.1 0 .1 0 0 0 0 0zM29 16h-.3v31.9h.2V16h.1zm-1.3 32.1h-.4v-32h.4v32c0-.1 0-.1 0 0zM27.6 16h-.3v31.9h.3V16z"/></g><path fill="#E9E744" d="M12.4 31.3c2-1.8 9.2-3 15.7-3s14.1 1.4 15.8 2.9v1.4c-1.4-1.3-7.3-2.9-15.8-2.9-8.4 0-14.6 1.6-15.7 2.9v-1.3z" clip-path="url(#j)"/><g clip-path="url(#j)"><path fill="#0A0000" d="m12.4 32.6-.1-1.2c0-.1.1-.1.1 0v1.2z"/></g><g clip-path="url(#j)"><path fill="#0A0000" d="m44 32.6-.1-1.2h.1v1.2z"/></g><path fill="#E9E744" d="M28.2 29.6c3.7 0 7.3.4 10.2.9 2.9.6 5 1.3 5.7 2.2v.4c-.9-1-3.6-1.8-5.8-2.2-2.8-.6-6.4-.9-10.1-.9-3.9 0-7.5.4-10.3.9-2.2.5-5.2 1.3-5.6 2.2v-.4c.2-.6 2.4-1.5 5.6-2.1 2.7-.6 6.4-1 10.3-1zm0-1.4c3.7 0 7.3.4 10.2.9 2.9.6 5 1.3 5.7 2.2v.4c-.8-1-3.6-1.8-5.8-2.2-2.8-.6-6.4-.9-10.1-.9-3.9 0-7.5.4-10.3.9-2.2.4-5.3 1.3-5.6 2.2v-.4c.2-.6 2.5-1.5 5.6-2.1 2.7-.6 6.4-1 10.3-1z" clip-path="url(#j)"/><g clip-path="url(#j)"><path fill="#0A0000" d="M12.3 33.1c-.1 0-.1 0 0 0v-.5c.2-.7 2.6-1.6 5.6-2.2 3-.6 6.7-.9 10.4-.9 3.6 0 7.2.3 10.2.9 3.1.6 5.1 1.4 5.8 2.2v.4c-1-1.1-4.1-1.8-5.9-2.2-3-.6-6.5-.9-10-.9-3.8 0-7.4.3-10.4.9-2.6.6-5.4 1.5-5.7 2.3zm15.9-3.2c3.6 0 7.1.3 10.1.9 1.8.4 4.9 1.1 5.8 2.2l-.1-.3c-.7-.8-2.6-1.5-5.7-2.1-3-.6-6.6-.9-10.1-.9-3.8 0-7.4.3-10.4.9-3.4.7-5.3 1.6-5.5 2.1v.2c.7-.9 3.7-1.7 5.6-2.1 3-.6 6.6-.9 10.3-.9zm-15.9 1.9c-.1 0-.1-.1 0 0v-.5c.2-.7 2.6-1.6 5.6-2.2 3-.6 6.7-.9 10.4-.9 3.6 0 7.2.3 10.2.9 3.1.6 5.1 1.4 5.8 2.2v.4c-1-1.1-4.1-1.8-5.9-2.2-3-.6-6.5-.9-10-.9-3.7 0-7.4.3-10.4.9-2.6.5-5.4 1.4-5.7 2.3 0-.1 0 0 0 0zm15.9-3.3c3.6 0 7.1.3 10.1.9 1.8.4 4.9 1.1 5.8 2.2l-.1-.3c-.7-.8-2.6-1.5-5.7-2.1-3-.6-6.6-.9-10-.9-3.8 0-7.5.3-10.5.9-3.2.6-5.3 1.6-5.5 2.1v.2c.6-.9 3.6-1.7 5.6-2.1 3-.5 6.7-.9 10.3-.9z"/></g><path fill="#E9E744" d="M28.1 21.4c5.8 0 10.9.8 13.3 2l.9 1.5c-2-1.1-7.5-2.2-14.1-2.1-5.4 0-11.1.6-14 2.1l1-1.7c2.3-1.2 7.9-1.8 12.9-1.8z" clip-path="url(#j)"/><g clip-path="url(#j)"><path fill="none" d="m41.5 23.6.6.9-.6-.9z"/></g><path fill="#E9E744" d="M28.2 22.6c3.3 0 6.6.2 9.1.6 2.4.4 4.7 1.1 5 1.5l.2.4c-.8-.5-2.8-1.1-5.3-1.6s-5.8-.6-9.1-.6c-3.8 0-6.7.2-9.2.6-2.7.5-4.5 1.2-5 1.5l.3-.5c.9-.5 2.3-1 4.6-1.4 2.7-.4 5.7-.5 9.4-.5zm0-1.4c3.2 0 6.4.2 8.8.6 1.9.4 3.9 1 4.5 1.5l.4.6c-.6-.7-3-1.4-5.1-1.7-2.4-.4-5.5-.6-8.7-.6-3.4 0-6.4.2-8.9.6-2.3.4-3.8 1-4.4 1.4l.3-.5c.9-.5 2.3-.9 4-1.2 2.6-.5 5.7-.7 9.1-.7z" clip-path="url(#j)"/><g clip-path="url(#j)"><path fill="#0A0000" d="M42.6 25.2s-.1 0 0 0c-.8-.5-2.7-1.1-5.3-1.6-2.3-.4-5.2-.6-8.8-.6h-.6c-3.6 0-6.4.2-8.9.6-2.6.5-4.5 1.2-4.9 1.5l.2-.5c1.2-.6 2.7-1.1 4.7-1.4 2.3-.4 5-.6 9.3-.6h.2c3.5 0 6.6.2 8.9.6 2.4.5 4.7 1.1 5 1.5l.2.5c0-.1 0-.1 0 0zm-14.2-2.6h-.2c-4.2 0-6.9.2-9.3.6-1.9.4-3.4.8-4.6 1.4l-.2.5c.4-.4 2.2-1.1 4.9-1.6 2.4-.4 5.3-.6 8.9-.6h.6c3.6 0 6.6.2 8.8.6 2.4.5 4.3 1 5.2 1.5l-.2-.3c-.3-.3-2.6-1-5-1.4-2.3-.5-5.4-.7-8.9-.7zM41.9 24s0-.1 0 0c-.7-.7-3.2-1.4-5.1-1.7-2.2-.4-5-.6-8.6-.6-3.5 0-6.5.2-8.8.7-2 .4-3.7.9-4.4 1.4l.3-.6c.9-.5 2.3-.9 4-1.2 2.3-.4 5.4-.6 8.9-.6h.3c3.4 0 6.3.2 8.6.6 2.1.4 3.9 1 4.6 1.5l.2.5c.1-.1.1-.1 0 0zm-13.7-2.5c3.6 0 6.4.2 8.7.6 1.8.3 4 .9 4.9 1.5l-.2-.3c-.6-.5-2.5-1.1-4.5-1.5-2.2-.4-5.2-.6-8.5-.6h-.3c-3.5 0-6.6.2-8.9.6-1.8.3-3.2.8-4 1.2l-.4.6c.7-.5 2.3-1 4.4-1.4 2.2-.5 5.3-.7 8.8-.7z"/></g><path fill="#E9E744" d="M36 38.6c-2.9-.5-5.8-.6-7.8-.6-9.7.1-12.9 2-13.3 2.6l-.7-1.2c2.5-1.8 7.8-2.8 14.1-2.7 3.3.1 6.1.3 8.4.7l-.7 1.2z" clip-path="url(#j)"/><g clip-path="url(#j)"><path fill="none" d="m14.3 39.5.5.8-.5-.8z"/></g><path fill="#E9E744" d="M28.1 37.8c2.7 0 5.4.2 7.9.6l-.2.3c-2.4-.4-4.9-.6-7.8-.6-3.6 0-7.2.3-10.4 1.2-1 .3-2.7.9-2.8 1.5l-.2-.3c.1-.3 1.1-1 2.9-1.5 3.8-1 7.2-1.2 10.6-1.2zm.1-1.4c2.8.1 5.7.2 8.5.7l-.2.3c-2.5-.5-5-.7-8.3-.7-3.6 0-7.4.3-10.9 1.3-1.1.3-3.1 1-3.1 1.6l-.2-.3c0-.5 1.7-1.2 3.2-1.6 3.6-1 7.4-1.3 11-1.3z" clip-path="url(#j)"/><g clip-path="url(#j)"><path fill="#0A0000" d="m14.9 40.9-.2-.3c.1-.4 1.1-1 3-1.6 3.5-1 6.7-1.2 10.5-1.2 2.6 0 5.3.1 8 .6l-.2.4c-2.2-.4-4.6-.6-7.4-.6h-.7c-3.8 0-7.2.4-10 1.2-1.2.3-2.8 1-3 1.5zm13.2-3.1c-3.8 0-7 .2-10.5 1.2-1.9.5-2.8 1.2-2.9 1.5l.1.2c.3-.6 2.1-1.2 2.8-1.4 2.8-.8 6.2-1.2 10-1.2h.7c2.8 0 5.2.2 7.4.6l.1-.3c-2.4-.4-5.1-.5-7.7-.6zm-13.9 1.9-.2-.3c0-.7 2.5-1.5 3.3-1.7 3-.9 6.5-1.3 11-1.3 2.8.1 5.7.2 8.5.8l-.2.4c-2.8-.5-5.3-.7-8.4-.7-4.5 0-7.9.4-10.9 1.3-1.4.3-3 1-3.1 1.5.1 0 0 0 0 0zm14-3.2c-4.5 0-8 .4-11 1.3-1.9.6-3.2 1.2-3.2 1.6l.1.2c.3-.7 2.8-1.4 3.1-1.5 3-.9 6.5-1.3 10.9-1.3 3 .1 5.6.2 8.3.7l.1-.3c-2.6-.5-5.5-.7-8.3-.7z"/></g><path fill="#0A0000" d="M25.3 37.4c0-.1 0-.1.1-.1l.1-.1h.1v.3h-.2l-.1-.1zm.1 0c0 .1.1.1.1.1h.1v-.2h-.1s-.1 0-.1.1c0-.1 0-.1 0 0zm.3 0c.1 0 .1 0 0 0 .1.1.1.1 0 0h.1-.1c.1 0 .1 0 0 0 .1 0 .1 0 0 0 .1 0 .1-.1 0 0v-.1c.1 0 .1 0 0 .1.1-.1.1 0 0 0 .1 0 .1 0 0 0 .1-.1.1-.1.2-.1 0 .2-.1.2-.2.1.1.1.1.1 0 0 .1.1 0 0 0 0zm.4 0c0 .1 0 .1 0 0l-.1.1v-.2h.2c-.1 0-.1 0-.1.1H26h.1c-.1 0-.1 0 0 0zm-.1 0h.1c0-.1 0-.1-.1 0 0-.1 0-.1 0 0 0-.1 0-.1 0 0zm.2.1h.1c0-.1 0 0-.1 0 0 0 0-.1 0 0v-.2h.1v.3c0-.1 0-.1-.1-.1zm0-.1c.1 0 .1 0 0 0h.1v-.1l-.1.1c.1-.1 0-.1 0 0 0-.1 0-.1 0 0zm.2 0v-.2h.1v.2-.1.2-.1h-.1zm.5 0s-.1 0 0 0c-.1.1-.1.1-.1 0v-.2h.2c-.1.1-.1.1-.1.2 0-.1 0-.1 0 0h-.1v.1c0-.1 0-.1.1-.1-.1 0-.1 0 0 0zm-.1-.1h.1s0-.1-.1 0c0-.1 0 0 0 0zm.1.1v-.2h.1v.1-.1.1l-.1.1zm.4 0c-.1 0-.1 0 0 0-.1 0-.1 0 0 0-.1 0-.1 0 0 0-.1 0-.1 0 0 0v-.3.3c-.1 0-.1 0 0 0-.1 0-.1 0 0 0-.1 0-.1 0 0 0zm0-.1s0-.1 0 0l.1-.1h.1v.2h-.1c-.1 0-.1 0-.1-.1 0 .1 0 .1 0 0zm0 0s0 .1 0 0c0 .1.1.1 0 0 .1.1.1.1 0 0h.1v-.1l-.1.1c.1-.1.1-.1 0 0zm.5 0c0 .1 0 .1 0 0-.1.1-.1.1 0 0-.1.1-.1.1-.1 0v-.2h.2c-.1.1-.1.2-.1.2h-.1v.1l.1-.1c-.1.1-.1.1 0 0-.1.1 0 .1 0 0zm-.1 0h.1v-.1s-.1 0-.1.1c0-.1 0-.1 0 0zm.1.1v-.3.3zm.2-.2zm-.1.2v-.2.2zm.1 0v-.2h.1v.2-.1.2-.1H28zm.4-.2zm-.1.2v-.2.2zm.1 0v-.2h.1v.1-.1h-.1v.2zm.4 0c-.1 0-.1 0 0 0h-.1c0-.1 0-.1.1 0-.1-.1-.1-.1 0 0v-.1.1zm0-.1c-.1 0-.1 0 0 0h-.1c0 .1 0 .1.1 0-.1.1-.1.1 0 0 0 .1 0 .1 0 0zm.2.1c-.1 0-.1 0 0 0-.1 0-.1 0-.1-.1V37l.1.4zm-.1-.1s0 .1 0 0c0 .1 0 .1 0 0 .1.1.1.1 0 0h.1v-.1l-.1.1c.1-.1 0-.1 0 0zm.2 0s0-.1 0 0l.1-.1h.1v.2h-.1c-.1 0-.1 0-.1-.1 0 .1 0 0 0 0zm0 0s0 .1 0 0c0 .1.1.1 0 0 .1.1.1.1 0 0h.1v-.1l-.1.1c.1-.1.1-.1 0 0zm.3.1v-.2.2zm.3 0c-.1.1-.1.1-.1 0v-.2h.2c0 .1 0 .1-.1.2h-.1.1c-.1 0-.1 0 0 0-.1 0 0 0 0 0zm-.1-.1h.1c0-.1 0-.1-.1 0 .1-.1 0-.1 0 0zm.2.1h.1s0-.1-.1 0c0-.1 0-.1 0 0 0-.1 0-.1 0 0 0-.1 0-.1 0 0v-.1.1c0-.1 0-.1 0 0 0-.1 0-.1 0 0 0-.1 0-.1 0 0h.1-.1zm.1.1.1-.3v.2l-.1.1.1-.1-.1.1zm.1-.2c0 .1 0 .1 0 0 0 .1 0 .1 0 0 .1.1.1.1 0 0 .1.1.1 0 .1 0v-.1c0 .1 0 0-.1.1.1-.1.1 0 0 0zm.3.1c.1 0 .1 0 0 0-.1.1-.1.1-.1 0v-.2h.2c0 .1 0 .1-.1.2.1-.1.1 0 0 0h-.1v.1c0-.1.1-.1.1-.1zm-.1-.1h.1-.1c.1 0 .1 0 0 0zm.3-.1zm-.1.2v-.2.2zm.2 0c0 .1 0 .1 0 0-.1.1-.1.1 0 0-.1 0-.1 0 0 0-.1 0-.1 0 0 0v-.3.3c-.1 0-.1 0 0 0-.1 0-.1 0 0 0-.1 0 0 0 0 0zm.1 0s0 .1 0 0c0 .1 0 .1 0 0h-.1s0-.1.1 0c0-.1 0-.1 0 0v-.1.1c.1 0 .1 0 0 0 .1 0 .1.1 0 0 0 .1 0 0 0 0zm0 0h-.1.1zm.2 0c0-.1.1-.1 0 0l.1-.1h.1v.2c-.1 0-.1 0-.2-.1zm.1 0s0 .1 0 0c0 .1 0 0 0 0 .1.1.1 0 .1 0v-.1l-.1.1c0-.1 0-.1 0 0 0-.1 0-.1 0 0zm.2.2.1-.3v.2c.1 0 0 0-.1.1.1-.1.1-.1 0 0 .1-.1.1-.1 0 0zm.1-.2c0 .1 0 .1 0 0 .1.1.1.1 0 0 .1.1.1 0 .1 0v-.1l-.1.1c.1-.1 0-.1 0 0 0-.1 0 0 0 0zm.2.1.1-.2-.1.2zm.1-.1s0-.1 0 0l.1-.1h.1v.2h-.1c-.1 0-.1 0-.1-.1 0 .1 0 0 0 0zm0 0s0 .1 0 0c.1.1.1.1 0 0 .1.1.1.1 0 0 .1.1.1 0 .1 0v-.1l-.1.1c.1-.1.1-.1 0 0 .1 0 0 0 0 0zm.3-.1zm-.1.3.1-.3-.1.3zm.3-.1c-.1 0-.1 0 0 0-.1.1-.1.1-.1 0v-.2h.2c-.1.1-.1.1-.1.2H32h.1c-.1 0-.1 0 0 0-.1 0-.1 0 0 0-.1 0-.1 0 0 0zm-.1-.1h.1-.1zm.3.1c-.1.1-.1.1 0 0-.1.1-.1.1-.1 0v-.2h.2c-.1.1-.1.1-.1.2v-.1c-.1 0-.1 0 0 .1-.1-.1-.1-.1-.1 0v.1c0-.1 0-.1.1-.1-.1 0-.1 0 0 0-.1 0 0 0 0 0zm.1 0c0 .1 0 .1 0 0 0 .1-.1.1 0 0-.1.1-.1.1 0 0-.1 0-.1 0 0 0v-.3.3zm0 0c0-.1.1-.1 0 0l.1-.1h.1v.2h-.1l-.1-.1zm.1 0s0 .1 0 0c0 .1 0 0 0 0h.1v-.1l-.1.1c0-.1 0-.1 0 0 0-.1 0-.1 0 0zm.4.1s-.1 0 0 0c-.1 0-.1 0 0 0-.1 0-.1 0-.1-.1v-.3l.1.4zm-.1-.1c0 .1 0 .1 0 0 0 .1.1.1 0 0 .1.1.1 0 .1 0v-.1l-.1.1c0-.1 0-.1 0 0zm.3.1c-.1.1-.1.1-.1 0v-.1s0-.1.1-.1h.2l-.2.2c.1-.1.1-.1 0 0H33v.1c0-.1 0-.1.1-.1zm-.1-.1h.1s0-.1-.1 0c.1-.1.1-.1 0 0zm.5.1-.1.1h-.1v-.3h.3l-.1.2v-.1h-.1v.2c0-.1.1-.1.1-.1zm.1 0c0-.1 0-.1 0 0l.1-.1h.1v.2h-.1c-.1 0-.1 0-.1-.1zm0 0c0 .1 0 .1 0 0 .1.1.1.1 0 0 .1.1.1 0 .1 0v-.1l-.1.1c.1-.1.1-.1 0 0 0-.1 0 0 0 0zm.2.1.1-.3-.1.3zm.2 0h-.1v-.1.1c0-.1 0 0 .1 0-.1 0-.1 0 0 0-.1 0-.1 0 0 0l.1-.2-.1.2zm.1 0 .1-.2h.1v.2-.1h-.1v.1-.1l-.1.1zm.3.1v-.3.1h.1s0 .1-.1.1c.1.1.1.1 0 .1.1 0 0 0 0 0zm.1-.1c0 .1 0 .1 0 0 0 .1 0 .1 0 0 .1.1.1 0 .1 0v-.1l-.1.1c0-.1 0-.1 0 0 0-.1 0 0 0 0zm.3.1c-.1 0-.1 0 0 0-.1 0-.1 0 0 0h-.1c-.1-.1-.1-.1.1 0l-.1-.1h.2l-.1.1zm0-.1s-.1 0 0 0c-.1 0-.1 0 0 0h-.1c0 .1 0 .1.1 0-.1.1-.1.1 0 0-.1.1-.1.1 0 0 0 .1 0 .1 0 0zm0 .2.1-.2h.1v.1-.1.1l-.2.1zm.3-.1c0-.1 0-.1 0 0l.1-.1h.1v.2h-.1c-.1 0-.1 0-.1-.1-.1 0-.1 0 0 0zm0 0c0 .1 0 .1 0 0 0 .1.1.1 0 0 .1.1.1 0 .1 0v-.1l-.1.1c.1-.1 0-.1 0 0 0-.1 0 0 0 0z" clip-path="url(#j)"/><g clip-path="url(#j)"><path fill="#C73232" d="M35.9 38.8c-.1 0-.1-.1-.1-.1l.9-1.5s.1-.1.1 0c0 0 .1.1 0 .1l-.9 1.5c.1 0 0 0 0 0z"/></g><path fill="#E9E744" d="M15 23.2c4.8-.1 27.1 13.6 27.2 16.2l-1.4 2.1c-.6-2.9-23.3-16.3-27-16l1.2-2.3z" clip-path="url(#j)"/><g clip-path="url(#j)"><path fill="#0A0000" d="m41 41.4 1.1-1.9h.1v.1L41 41.4z"/></g><g clip-path="url(#j)"><path fill="#0A0000" d="m13.9 25.4 1-2.1h.1v.1l-1.1 2z"/></g><path fill="#E9E744" d="M13.7 25.4c.9-.6 7.5 2.3 14.4 6.5s13.4 8.9 12.9 9.8l-.2.3h-.2s.1-.1 0-.5c-.3-1-5-4.7-12.7-9.4-7.5-4.5-13.8-7.2-14.5-6.4l.3-.3zm28.6 14.1c.6-1.1-5.5-5.7-13.1-10.2-7.8-4.4-13.3-7-14.4-6.2l-.2.4.1-.1c.2-.2.5-.2.6-.2 1.8 0 6.8 2.3 13.8 6.4 3.1 1.8 13 8.2 13 10v.3l.2-.4z" clip-path="url(#j)"/><g clip-path="url(#j)"><path fill="#0A0000" d="M40.7 42c-.1 0-.1 0 0 0-.1-.1 0-.2-.1-.5-.3-1-5.2-4.8-12.7-9.3-6.4-3.8-12.3-6.6-14-6.6-.2 0-.3 0-.4.1v-.1l.1-.3c.1-.1.2-.1.4-.1 1.8 0 7.9 2.9 14 6.6 6.2 3.8 12.6 8.3 12.9 9.6v.3l-.2.3zM13.9 25.6c1.8 0 7.7 2.8 14 6.6 7.6 4.6 12.4 8.4 12.7 9.4.1.1.1.2.1.3l.1-.2v-.2c-.3-1.3-6.8-5.9-12.9-9.5-6.1-3.7-12.2-6.6-14-6.6-.2 0-.3 0-.3.1l-.1.2c.2-.1.3-.1.4-.1zm28.2 14.3c0-.1 0-.1 0 0v-.2c0-1.8-10.1-8.3-13-10-7-4-12-6.3-13.8-6.4-.2 0-.4 0-.6.1.2-.2.4-.2.6-.2 1.8 0 6.8 2.4 13.9 6.4 2 1.2 13.1 8.1 13 10l.1-.2c.5-1-5.2-5.5-13.1-10.1-8.3-4.7-13.4-6.9-14.3-6.2l-.2.4h-.1l.2-.4c.1-.1.3-.2.6-.2 2.2 0 8.7 3.4 13.8 6.4 6.8 4.1 13.8 9 13.1 10.3l-.2.3z"/></g><path fill="#FFF" d="M18.8 33.8c0 2.6 1.1 4.9 2.8 6.6 1.7 1.7 4 2.8 6.6 2.8 2.6 0 5-1.1 6.7-2.8 1.7-1.7 2.8-4.1 2.8-6.7V21.2H18.8v12.6z" clip-path="url(#j)"/><g clip-path="url(#j)"><path fill="#0A0000" d="M28.2 43.2c-2.5 0-4.9-1-6.7-2.8-1.8-1.8-2.8-4.2-2.8-6.7V21.2h18.9l.1 12.6c0 2.5-1 4.9-2.8 6.7-1.8 1.7-4.2 2.7-6.7 2.7zm9.4-22H18.8l.1 12.5c0 2.5 1 4.8 2.8 6.6 1.8 1.8 4.1 2.8 6.6 2.8s4.9-1 6.6-2.7c1.8-1.8 2.8-4.1 2.8-6.6V21.2h-.1z"/></g><path fill="#C73232" d="M19.1 33.8c0 2.5 1 4.7 2.7 6.4 1.6 1.6 3.9 2.7 6.4 2.7 2.5 0 4.7-1 6.4-2.6 1.6-1.6 2.7-3.9 2.7-6.4V21.6H19.1v12.2zm14.5-8.6v9.3c-.1 1.2-.7 2.3-1.5 3.1-1 1-2.3 1.6-3.8 1.6s-2.8-.6-3.8-1.6-1.6-2.4-1.6-3.8v-8.6h10.7z" clip-path="url(#j)"/><g clip-path="url(#j)"><path fill="#0A0000" d="M28.2 42.8c-2.4 0-4.7-1-6.4-2.7-1.7-1.7-2.7-4-2.7-6.4V21.5h18.1v12.3c0 2.4-.9 4.7-2.7 6.4-1.6 1.7-3.9 2.6-6.3 2.6zm9-21.2h-18v12.2c0 2.4.9 4.6 2.6 6.3 1.7 1.7 4 2.6 6.4 2.6 2.4 0 4.7-.9 6.4-2.6 1.7-1.7 2.6-3.9 2.6-6.3V21.6zm-9 17.6c-1.4 0-2.8-.6-3.8-1.6s-1.6-2.4-1.6-3.8v-8.6h10.8v9.3c-.1 1.2-.7 2.3-1.6 3.2-1 1-2.4 1.5-3.8 1.5zm-5.4-13.9v8.5c0 1.4.6 2.8 1.6 3.8s2.4 1.6 3.8 1.6 2.8-.6 3.8-1.6c.9-.9 1.4-1.9 1.5-3.1v-9.3l-10.7.1z"/></g><path fill="#262C73" d="M27 32.4c0 .4.1.7.3.9.2.2.5.4.8.4.3 0 .6-.1.8-.4.2-.2.4-.6.4-.9v-1.7h-2.4l.1 1.7z" clip-path="url(#j)"/><path fill="#FFF" d="M28.9 31.1c-.1 0-.2.1-.2.2s.1.2.2.2.2-.1.2-.2-.1-.2-.2-.2zm-.7.6c-.1 0-.2.1-.2.2s.1.2.2.2.2-.1.2-.2c.1-.1 0-.2-.2-.2zm.7.7c-.1 0-.2.1-.2.2s.1.2.2.2.2-.1.2-.2-.1-.2-.2-.2zm-1.3 0c-.1 0-.2.1-.2.2s.1.2.2.2.2-.1.2-.2-.1-.2-.2-.2zm0-1.3c-.1 0-.2.1-.2.2s.1.2.2.2.2-.1.2-.2-.1-.2-.2-.2z" clip-path="url(#j)"/><path fill="#262C73" d="M27 36.5c0 .3.1.7.4.9.2.2.5.4.8.4.3 0 .6-.1.8-.4.2-.2.3-.5.3-.9v-1.7h-2.4v1.7h.1z" clip-path="url(#j)"/><path fill="#FFF" d="M28.9 35.2c-.1 0-.2.1-.2.2s.1.2.2.2.2-.1.2-.2-.1-.2-.2-.2zm-.7.6c-.1 0-.2.1-.2.2s.1.2.2.2.2-.1.2-.2-.1-.2-.2-.2zm.7.7c-.1 0-.2.1-.2.2s.1.2.2.2.2-.1.2-.2-.1-.2-.2-.2zm-1.3 0c-.1 0-.2.1-.2.2s.1.2.2.2.2-.1.2-.2-.1-.2-.2-.2zm0-1.3c-.1 0-.2.1-.2.2s.1.2.2.2.2-.1.2-.2-.1-.2-.2-.2z" clip-path="url(#j)"/><path fill="#262C73" d="M23.7 32.4c0 .3.1.7.4.9.2.2.5.4.8.4.3 0 .6-.1.8-.4.2-.2.4-.6.4-.9v-1.7h-2.4v1.7z" clip-path="url(#j)"/><path fill="#FFF" d="M25.6 31.1c-.1 0-.2.1-.2.2s.1.2.2.2.2-.1.2-.2-.1-.2-.2-.2zm-.7.6c-.1 0-.2.1-.2.2s.1.2.2.2.2-.1.2-.2c.1-.1 0-.2-.2-.2zm.7.7c-.1 0-.2.1-.2.2s.1.2.2.2.2-.1.2-.2-.1-.2-.2-.2zm-1.3 0c-.1 0-.2.1-.2.2s.1.2.2.2.2-.1.2-.2-.1-.2-.2-.2zm0-1.3c-.1 0-.2.1-.2.2s.1.2.2.2.2-.1.2-.2-.1-.2-.2-.2z" clip-path="url(#j)"/><path fill="#262C73" d="M30.3 32.4c0 .3.1.7.3.9.2.2.5.4.8.4.3 0 .6-.1.8-.4.2-.2.4-.6.4-.9v-1.7h-2.4l.1 1.7z" clip-path="url(#j)"/><path fill="#FFF" d="M32.2 31.1c-.1 0-.2.1-.2.2s.1.2.2.2.2-.1.2-.2-.1-.2-.2-.2zm-.7.6c-.1 0-.2.1-.2.2s.1.2.2.2.2-.1.2-.2c.1-.1-.1-.2-.2-.2zm.7.7c-.1 0-.2.1-.2.2s.1.2.2.2.2-.1.2-.2-.1-.2-.2-.2zm-1.3 0c-.1 0-.2.1-.2.2s.1.2.2.2.2-.1.2-.2-.1-.2-.2-.2zm0-1.3c-.1 0-.2.1-.2.2s.1.2.2.2.2-.1.2-.2-.1-.2-.2-.2z" clip-path="url(#j)"/><path fill="#262C73" d="M27 28.3c0 .3.1.7.3.9.2.2.5.4.8.4.3 0 .6-.1.8-.4.2-.2.4-.6.4-.9v-1.7H27v1.7z" clip-path="url(#j)"/><path fill="#FFF" d="M28.9 27c-.1 0-.2.1-.2.2s.1.2.2.2.2-.1.2-.2-.1-.2-.2-.2zm-.7.6c-.1 0-.2.1-.2.2s.1.2.2.2.2-.1.2-.2c.1-.1 0-.2-.2-.2zm.7.7c-.1 0-.2.1-.2.2s.1.2.2.2.2-.1.2-.2-.1-.2-.2-.2zm-1.3 0c-.1 0-.2.1-.2.2s.1.2.2.2.2-.1.2-.2-.1-.2-.2-.2zm0-1.3c-.1 0-.2.1-.2.2s.1.2.2.2.2-.1.2-.2-.1-.2-.2-.2z" clip-path="url(#j)"/><path fill="#E9E744" d="M20.3 24.8c0-.9.6-1.1.6-1.1s.7.2.7 1.1h-1.3z" clip-path="url(#j)"/><path fill="#E9E744" d="m19.7 23.7-.1 1h.7c0-.8.6-1 .6-1s.6.2.7 1h.7l-.1-1h-2.5z" clip-path="url(#j)"/><g clip-path="url(#j)"><path fill="#0A0000" d="M22.3 24.7h-.7c-.1-.8-.7-1-.7-1s-.6.1-.6.9h-.7l.1-1.1h2.4l.2 1.2zm-1.4-1h-1.1l-.1 1h.6c0-.7.4-.9.6-1zm.1 0c.2.1.6.3.6 1h.6l-.1-1H21z"/></g><path fill="#E9E744" d="M19.6 24.7h2.7c.1 0 .1.1.1.1 0 .1 0 .1-.1.1h-2.7c-.1 0-.1-.1-.1-.1s0-.1.1-.1z" clip-path="url(#j)"/><g clip-path="url(#j)"><path fill="#0A0000" d="M22.3 25h-2.7c-.1 0-.1-.1-.1-.2s.1-.2.1-.2h2.7c.1 0 .1.1.1.2s0 .2-.1.2zm-2.7-.3v.2h2.7s.1 0 .1-.1l-2.8-.1z"/></g><path fill="#E9E744" d="M20.6 24.7c0-.5.4-.7.4-.7s.4.2.4.7h-.8z" clip-path="url(#j)"/><g clip-path="url(#j)"><path fill="#0A0000" d="M21.3 24.7h-.8c0-.6.3-.7.3-.8.2.1.5.3.5.8zm-.4-.6s-.3.1-.3.6h.7c-.1-.5-.4-.6-.4-.6z"/></g><path fill="#E9E744" d="M19.7 23.3h2.6c.1 0 .1.1.1.1 0 .1 0 .1-.1.1h-2.6c-.1 0-.1 0-.1-.1-.1-.1 0-.1.1-.1z" clip-path="url(#j)"/><g clip-path="url(#j)"><path fill="#0A0000" d="M22.2 23.5h-2.6c-.1 0-.1-.1-.1-.1 0-.1.1-.1.1-.1h2.6c.1 0 .1.1.1.1.1.1 0 .1-.1.1zm-2.5-.2v.1h2.6s.1 0 .1-.1h-2.7z"/></g><path fill="#E9E744" d="M19.7 23.5h2.5c.1 0 .1.1.1.1 0 .1 0 .1-.1.1h-2.5c-.1 0-.1-.1-.1-.1 0-.1.1-.1.1-.1z" clip-path="url(#j)"/><g clip-path="url(#j)"><path fill="#0A0000" d="M22.2 23.8h-2.5c-.1 0-.1-.1-.1-.2s.1-.2.1-.2h2.5c.1 0 .1.1.1.2s-.1.2-.1.2zm-2.5-.3v.2h2.5s.1 0 .1-.1l-2.6-.1z"/></g><path fill="#E9E744" d="M20.5 21.8h.2v.2h.1v-.1h.2v.1h.1v-.1h.2v.3s0 .1-.1.1h-.7s-.1 0-.1-.1v-.4h.1z" clip-path="url(#j)"/><g clip-path="url(#j)"><path fill="#0A0000" d="M21.3 22.3h-.7l-.1-.1v-.3h.2v.2h.1V22h.2v.2h.1v-.1h.2v.4-.2zm-.6-.5h-.2v.3l.7.1.1-.1v-.3h-.2v.1l-.1.1v-.2h-.2v.1h-.2l.1-.1z"/></g><path fill="#E9E744" d="m21.2 22.2.1 1.1h-.7v-1.1h.6z" clip-path="url(#j)"/><g clip-path="url(#j)"><path fill="#0A0000" d="M21.3 23.3h-.7v-1.1h.6l.1 1.1zm-.1-1.1h-.6v1h.6v-1z"/></g><path fill="#E9E744" d="M21.3 22.3h.2v.1h.1v-.1h.2v.1h.2v-.1h.2v.3s0 .1-.1.1h-.7s-.1 0-.1-.1v-.3z" clip-path="url(#j)"/><g clip-path="url(#j)"><path fill="#0A0000" d="M22.1 22.8h-.7l-.1-.1v-.3h.2v.2h.1v-.1h.2v.2h.1v-.1h.2v.4-.2zm-.6-.5h-.1v.3l.7.1.1-.1v-.3H22v.1h-.2v-.2h-.2v.1h-.2.1z"/></g><path fill="#E9E744" d="M22.1 22.7v.6h-.6v-.6z" clip-path="url(#j)"/><g clip-path="url(#j)"><path fill="#0A0000" d="M22.1 23.3h-.7v-.6h.7v.6zm-.1-.6h-.6v.5h.6v-.5z"/></g><path fill="#E9E744" d="M19.7 22.3h.2v.1h.1v-.1h.2v.1h.1v-.1h.2v.3c0 .1 0 .1-.1.1h-.7s-.1 0-.1-.1v-.3h.1z" clip-path="url(#j)"/><g clip-path="url(#j)"><path fill="#0A0000" d="M20.4 22.8h-.7l-.1-.1v-.3h.2v.2h.1v-.1h.2v.2h.1v-.1h.2v.4-.2zm-.6-.5h-.2v.3l.7.1.1-.1v-.3h-.2v.1H20v-.2h-.2v.1h-.2.2z"/></g><path fill="#E9E744" d="M20.4 22.7v.6h-.6v-.6z" clip-path="url(#j)"/><g clip-path="url(#j)"><path fill="#0A0000" d="M20.5 23.3h-.7v-.6h.7v.6zm-.1-.6h-.6v.5h.6v-.5z"/></g><path fill="#0A0000" d="M20.9 22.6c0-.1.1-.1.1 0v.2h-.1v-.2zm.8.3c0-.1.1-.1.1 0v.2h-.1v-.2zm-1.7 0c0-.1.1-.1.1 0v.2H20v-.2z" clip-path="url(#j)"/><path fill="#E9E744" d="M27.8 21.8h.2v.2h.1v-.1h.2v.1h.1v-.1h.2v.3s0 .1-.1.1h-.7s-.1 0-.1-.1v-.4h.1z" clip-path="url(#j)"/><g clip-path="url(#j)"><path fill="#0A0000" d="M28.6 22.3h-.7l-.1-.1v-.3h.2v.2h.1V22h.2v.2h.1v-.1h.2v.4-.2zm-.7-.5h-.2v.3l.8.1v-.4h-.2v.1h-.2v-.2h-.2v.1l.1.2-.1-.2z"/></g><path fill="#E9E744" d="M28.5 22.2v1.1h-.6v-1.1h.6z" clip-path="url(#j)"/><g clip-path="url(#j)"><path fill="#0A0000" d="M28.6 23.3h-.7v-1.1h.6l.1 1.1zm-.1-1.1H28v1h.6l-.1-1z"/></g><path fill="#E9E744" d="M28.6 22.3h.2v.1h.1v-.1h.2v.1h.1v-.1h.2v.3c0 .1 0 .1-.1.1h-.7s-.1 0-.1-.1v-.3h.1z" clip-path="url(#j)"/><g clip-path="url(#j)"><path fill="#0A0000" d="M29.4 22.8h-.7l-.1-.1v-.3h.2v.2h.1v-.1h.2v.2h.1v-.1h.2v.4-.2zm-.6-.5h-.1v.3l.7.1.1-.1v-.3h-.2v.1h-.2v-.2h-.2v.1h-.2.1z"/></g><path fill="#E9E744" d="m29.3 22.7.1.6h-.7v-.6z" clip-path="url(#j)"/><g clip-path="url(#j)"><path fill="#0A0000" d="M28.7 23.3v-.6h.7l.1.6h-.8zm.6-.6h-.6v.5h.6v-.5z"/></g><path fill="#E9E744" d="M26.9 22.3h.2v.1h.1v-.1h.2v.1h.1v-.1h.2v.3s0 .1-.1.1H27s-.1 0-.1-.1v-.3z" clip-path="url(#j)"/><g clip-path="url(#j)"><path fill="#0A0000" d="M27.7 22.8H27l-.1-.1v-.3h.2v.2h.1v-.1h.2v.2h.1v-.1h.2v.4-.2zm-.6-.5H27v.3l.7.1v-.4h-.2v.1h-.2v-.2h-.1v.1H27h.1z"/></g><path fill="#E9E744" d="M27.7 22.7v.6H27v-.6z" clip-path="url(#j)"/><g clip-path="url(#j)"><path fill="#0A0000" d="M27.7 23.3H27v-.6h.7v.6zm-.1-.6H27v.5h.6v-.5z"/></g><path fill="#E9E744" d="M27.5 24.8c0-.9.6-1.1.6-1.1s.7.2.7 1.1h-1.3z" clip-path="url(#j)"/><path fill="#E9E744" d="m27 23.7-.1 1h.7c0-.8.6-1 .6-1s.6.2.7 1h.7l-.1-1H27z" clip-path="url(#j)"/><g clip-path="url(#j)"><path fill="#0A0000" d="M29.6 24.7h-.7c-.1-.8-.7-1-.7-1s-.6.1-.6.9h-.7l.1-1.1h2.4l.2 1.2zm-1.5-1H27l-.1 1h.6c0-.7.5-.9.6-1zm.2 0c.2.1.6.3.6 1h.6l-.1-1h-1.1z"/></g><path fill="#E9E744" d="M26.8 24.7h2.7c.1 0 .1.1.1.1 0 .1 0 .1-.1.1h-2.7c-.1 0-.1-.1-.1-.1.1 0 .1-.1.1-.1z" clip-path="url(#j)"/><g clip-path="url(#j)"><path fill="#0A0000" d="M29.5 25h-2.7c-.1 0-.1-.1-.1-.2s.1-.2.1-.2h2.7c.1 0 .1.1.1.2.1.1 0 .2-.1.2zm-2.7-.3v.2h2.7s.1 0 .1-.1l-2.8-.1z"/></g><path fill="#E9E744" d="M27.8 24.7c0-.5.4-.7.4-.7s.4.2.4.7h-.8z" clip-path="url(#j)"/><g clip-path="url(#j)"><path fill="#0A0000" d="M28.6 24.7h-.8c0-.6.3-.7.3-.8.1.1.5.3.5.8zm-.4-.6s-.3.1-.3.6h.6c0-.5-.3-.6-.3-.6z"/></g><path fill="#E9E744" d="M26.9 23.3h2.6c.1 0 .1.1.1.1 0 .1 0 .1-.1.1h-2.6c-.1 0-.1 0-.1-.1s.1-.1.1-.1z" clip-path="url(#j)"/><g clip-path="url(#j)"><path fill="#0A0000" d="M29.5 23.5h-2.6c-.1 0-.1-.1-.1-.1 0-.1.1-.1.1-.1h2.6c.1 0 .1.1.1.1 0 .1 0 .1-.1.1zm-2.6-.2v.1h2.6s.1 0 .1-.1h-2.7z"/></g><path fill="#E9E744" d="M27 23.5h2.5c.1 0 .1.1.1.1 0 .1 0 .1-.1.1H27c-.1 0-.1-.1-.1-.1 0-.1 0-.1.1-.1z" clip-path="url(#j)"/><g clip-path="url(#j)"><path fill="#0A0000" d="M29.4 23.8H27c-.1 0-.1-.1-.1-.2s.1-.2.1-.2h2.5c.1 0 .1.1.1.2s-.1.2-.2.2zm-2.4-.3v.1h2.5s.1 0 .1-.1H27z"/></g><path fill="#0A0000" d="M28.1 22.6c0-.1.1-.1.1 0v.2h-.1v-.2zm.9.3c0-.1.1-.1.1 0v.2H29v-.2zm-1.7 0c0-.1.1-.1.1 0v.2h-.1v-.2z" clip-path="url(#j)"/><path fill="#E9E744" d="M34.9 21.8h.2v.2h.1v-.1h.2v.1h.1v-.1h.2v.3c0 .1 0 .1-.1.1H35s-.1 0-.1-.1v-.4z" clip-path="url(#j)"/><g clip-path="url(#j)"><path fill="#0A0000" d="M35.7 22.3H35l-.1-.1v-.3h.2v.2h.1V22h.2v.2h.1v-.1h.2v.4-.2zm-.6-.5h-.2v.3l.8.1v-.4h-.2v.1h-.2v-.2h-.2v.1h-.2.2z"/></g><path fill="#E9E744" d="M35.7 22.2v1.1H35l.1-1.1z" clip-path="url(#j)"/><g clip-path="url(#j)"><path fill="#0A0000" d="M35.8 23.3h-.7v-1.1h.6l.1 1.1zm-.2-1.1H35v1h.6v-1z"/></g><path fill="#E9E744" d="M35.8 22.3h.2v.1h.1v-.1h.2v.1h.1v-.1h.2v.3c0 .1 0 .1-.1.1h-.7s-.1 0-.1-.1l.1-.3z" clip-path="url(#j)"/><g clip-path="url(#j)"><path fill="#0A0000" d="M36.6 22.8h-.7l-.1-.1v-.3h.2v.2h.1v-.1h.2v.2h.1v-.1h.2v.4-.2zm-.7-.5h-.2v.3l.7.1v-.4h-.2v.1H36v-.2h-.2v.1h-.2.3z"/></g><path fill="#E9E744" d="M36.5 22.7v.6h-.6v-.6z" clip-path="url(#j)"/><g clip-path="url(#j)"><path fill="#0A0000" d="M36.6 23.3h-.7v-.6h.7v.6zm-.1-.6h-.6v.5h.6v-.5z"/></g><path fill="#E9E744" d="M34.1 22.3h.2v.1h.1v-.1h.2v.1h.1v-.1h.3v.3c0 .1 0 .1-.1.1h-.7s-.1 0-.1-.1v-.3z" clip-path="url(#j)"/><g clip-path="url(#j)"><path fill="#0A0000" d="M34.9 22.8h-.7l-.1-.1v-.3h.2v.2h.1v-.1h.2v.2h.1v-.1h.2v.4-.2zm-.6-.5h-.2v.3l.7.1v-.4h-.1v.1h-.2v-.2h-.1v.1h-.2.1z"/></g><path fill="#E9E744" d="m34.8 22.7.1.6h-.7v-.6z" clip-path="url(#j)"/><g clip-path="url(#j)"><path fill="#0A0000" d="M34.9 23.3h-.7v-.6h.7v.6zm-.1-.6h-.6v.5h.6v-.5z"/></g><path fill="#E9E744" d="M34.7 24.8c0-.9.6-1.1.6-1.1s.7.2.7 1.1h-1.3z" clip-path="url(#j)"/><path fill="#E9E744" d="m34.2 23.7-.1 1h.7c0-.8.6-1 .6-1s.6.2.6 1h.7l-.1-1h-2.4z" clip-path="url(#j)"/><g clip-path="url(#j)"><path fill="#0A0000" d="M36.7 24.7H36c-.1-.8-.6-1-.6-1s-.6.1-.6.9h-.7l.1-1h2.4l.1 1.1zm-1.4-1h-1.1l-.1 1h.6c0-.7.4-.9.6-1zm.1 0c.2.1.6.3.6 1h.6l-.1-1h-1.1z"/></g><path fill="#E9E744" d="M34 24.7h2.7c.1 0 .1.1.1.1s0 .1-.1.1H34c-.1 0-.1-.1-.1-.1l.1-.1z" clip-path="url(#j)"/><g clip-path="url(#j)"><path fill="#0A0000" d="M36.7 25H34c-.1 0-.1-.1-.1-.2s.1-.2.1-.2h2.7c.1 0 .1.1.1.2.1.1 0 .2-.1.2zm-2.7-.3v.2h2.7s.1 0 .1-.1l-2.8-.1z"/></g><path fill="#E9E744" d="M35 24.7c0-.5.4-.7.4-.7s.4.1.4.7H35z" clip-path="url(#j)"/><g clip-path="url(#j)"><path fill="#0A0000" d="M35.8 24.7H35c0-.6.3-.7.3-.7.1 0 .5.2.5.7zm-.4-.6s-.3.2-.3.6h.7c-.1-.5-.4-.6-.4-.6z"/></g><path fill="#E9E744" d="M34.1 23.3h2.6c.1 0 .1.1.1.1 0 .1 0 .1-.1.1h-2.6c-.1 0-.1 0-.1-.1s0-.1.1-.1z" clip-path="url(#j)"/><g clip-path="url(#j)"><path fill="#0A0000" d="M36.7 23.5h-2.6c-.1 0-.1-.1-.1-.1 0-.1.1-.2.1-.2h2.6c.1 0 .1.1.1.2s-.1.1-.1.1zm-2.6-.2v.1h2.6s.1 0 .1-.1h-2.7z"/></g><path fill="#E9E744" d="M34.1 23.5h2.5l.1.1c0 .1 0 .1-.1.1h-2.5s-.1 0-.1-.1l.1-.1z" clip-path="url(#j)"/><g clip-path="url(#j)"><path fill="#0A0000" d="M36.6 23.8h-2.5c-.1 0-.1-.1-.1-.2s.1-.1.1-.1h2.5c.1 0 .1.1.1.1 0 .1 0 .2-.1.2zm-2.5-.3v.1h2.5s.1 0 .1-.1h-2.6z"/></g><path fill="#0A0000" d="M35.3 22.6c0-.1.1-.1.1 0v.3h-.1v-.3zm.8.3c0-.1.1-.1.1 0v.2h-.1v-.2zm-1.6 0c0-.1.1-.1.1 0v.2h-.1v-.2z" clip-path="url(#j)"/><path fill="#E9E744" d="M20.5 29.2h.2v.1h.1v-.1h.2v.1h.1v-.1h.2v.3s0 .1-.1.1h-.7s-.1 0-.1-.1v-.3h.1z" clip-path="url(#j)"/><g clip-path="url(#j)"><path fill="#0A0000" d="M21.3 29.6h-.7l-.1-.1v-.3h.2v.2h.1v-.1h.2v.2h.1v-.1h.2v.4-.2zm-.6-.4h-.1v.3l.7.1.1-.1v-.3h-.2v.1H21v-.2h-.2v.1h-.2.1z"/></g><path fill="#E9E744" d="m21.2 29.6.1 1h-.7v-1h.6z" clip-path="url(#j)"/><g clip-path="url(#j)"><path fill="#0A0000" d="M21.3 30.7h-.7v-1.1h.6l.1 1.1zm-.1-1.1h-.6v1h.6v-1z"/></g><path fill="#E9E744" d="M21.4 29.7h.2v.1h.1v-.1h.2v.1h.1v-.1h.2v.3s0 .1-.1.1h-.7s-.1 0-.1-.1v-.3h.1z" clip-path="url(#j)"/><g clip-path="url(#j)"><path fill="#0A0000" d="M22.1 30.1h-.7l-.1-.1v-.3h.2v.2h.1v-.1h.2v.2h.1v-.1h.2v.4-.2zm-.6-.4h-.1v.3l.7.1.1-.1v-.3H22v.1h-.2v-.2h-.2v.1h-.2.1z"/></g><path fill="#E9E744" d="M22.1 30.1v.5h-.6v-.5z" clip-path="url(#j)"/><g clip-path="url(#j)"><path fill="#0A0000" d="M22.1 30.7h-.7v-.6h.7v.6zm0-.6h-.6v.5h.6v-.5z"/></g><path fill="#E9E744" d="M19.7 29.7h.2v.1h.1v-.1h.2v.1h.1v-.1h.2v.3s0 .1-.1.1h-.7s-.1 0-.1-.1v-.3h.1z" clip-path="url(#j)"/><g clip-path="url(#j)"><path fill="#0A0000" d="M20.4 30.1h-.7l-.1-.1v-.3h.2v.2h.1v-.1h.2v.2h.1v-.1h.2v.4-.2zm-.6-.4h-.2v.3l.7.1v-.4h-.2v.1h-.2v-.2h-.2v.1h-.2.3z"/></g><path fill="#E9E744" d="M20.4 30.1v.5h-.6v-.5z" clip-path="url(#j)"/><g clip-path="url(#j)"><path fill="#0A0000" d="M20.5 30.7h-.7v-.6h.7v.6zm-.1-.6h-.6v.5h.6v-.5z"/></g><path fill="#E9E744" d="M20.3 32.1c0-.9.6-1.1.6-1.1s.7.2.7 1.1h-1.3z" clip-path="url(#j)"/><path fill="#E9E744" d="m19.8 31.1-.1 1h.7c0-.8.6-1 .6-1s.6.2.6 1h.7l-.1-1h-2.4z" clip-path="url(#j)"/><g clip-path="url(#j)"><path fill="#0A0000" d="M22.3 32.1h-.7c-.1-.8-.6-1-.7-1 0 0-.6.1-.6.9h-.7l.1-1.1h2.4l.2 1.2zm-1.4-1h-1.1l-.1 1h.6c0-.8.4-1 .6-1zm.1 0c.2.1.6.3.6 1h.6l-.1-1H21z"/></g><path fill="#E9E744" d="M19.6 32.1h2.7c.1 0 .1.1.1.1 0 .1 0 .1-.1.1h-2.7c-.1 0-.1-.1-.1-.1 0-.1 0-.1.1-.1z" clip-path="url(#j)"/><g clip-path="url(#j)"><path fill="#0A0000" d="M22.3 32.4h-2.7c-.1 0-.1-.1-.1-.2s.1-.2.1-.2h2.7c.1 0 .1.1.1.2s0 .2-.1.2zm-2.7-.3v.2h2.7s.1 0 .1-.1l-2.8-.1z"/></g><path fill="#E9E744" d="M20.6 32.1c0-.5.4-.7.4-.7s.4.2.4.7h-.8z" clip-path="url(#j)"/><g clip-path="url(#j)"><path fill="#0A0000" d="M21.4 32.1h-.8c0-.6.3-.8.4-.8 0 0 .3.2.4.8zm-.5-.7s-.3.2-.3.6h.7c0-.4-.4-.6-.4-.6z"/></g><path fill="#E9E744" d="M19.7 30.6h2.6c.1 0 .1.1.1.1 0 .1 0 .1-.1.1h-2.6c-.1 0-.1 0-.1-.1 0 0 0-.1.1-.1z" clip-path="url(#j)"/><g clip-path="url(#j)"><path fill="#0A0000" d="M22.2 30.9h-2.6c-.1 0-.1-.1-.1-.2s.1-.1.1-.1h2.6c.1 0 .1.1.1.1s0 .2-.1.2zm-2.5-.2v.1h2.6s.1 0 .1-.1h-2.7z"/></g><path fill="#E9E744" d="M19.7 30.9h2.5c.1 0 .1.1.1.1 0 .1 0 .1-.1.1h-2.5c-.1 0-.1 0-.1-.1s.1-.1.1-.1z" clip-path="url(#j)"/><g clip-path="url(#j)"><path fill="#0A0000" d="M22.2 31.1h-2.5c-.1 0-.1-.1-.1-.2s.1-.2.1-.2h2.5c.1 0 .1.1.1.2 0 .2-.1.2-.1.2zm-2.5-.2v.1h2.5s.1 0 .1-.1h-2.6z"/></g><path fill="#0A0000" d="M20.9 29.9c0-.1.1-.1.1 0v.2h-.1v-.2zm.8.4c0-.1.1-.1.1 0v.2h-.1v-.2zm-1.7 0c0-.1.1-.1.1 0v.2H20v-.2z" clip-path="url(#j)"/><path fill="#E9E744" d="m34.5 36.9.1.1-.1.1.1.1.1-.1.1.1-.1.1.1.1.1-.1.1.1-.2.2h-.1l-.5-.5V37l.3-.1z" clip-path="url(#j)"/><g clip-path="url(#j)"><path fill="#0A0000" d="m34.9 37.8-.6-.6v-.1l.2-.2.2.1-.1.1h.1V37l.2.1-.1.2h.1v-.1l.2.1-.2.5zm-.4-.8-.2.2.5.6v-.1l.2-.2v-.1.1l-.2-.1.1-.2-.1-.1v.1l-.2-.1.1-.1h-.2z"/></g><path fill="#E9E744" d="m34.7 37.8-.7.7-.4-.5.7-.7z" clip-path="url(#j)"/><g clip-path="url(#j)"><path fill="#0A0000" d="m34 38.6-.5-.5.8-.7.5.4-.8.8zm.3-1.2-.7.7.5.4.7-.7-.5-.4z"/></g><path fill="#E9E744" d="m34.8 37.9.1.1-.1.1.1.1.1-.1.1.1-.1.2.1.1.1-.1.1.1-.2.2H35l-.5-.5v-.1l.3-.2z" clip-path="url(#j)"/><g clip-path="url(#j)"><path fill="#0A0000" d="m35.1 38.8-.6-.6v-.1l.2-.2.2.1-.1.2h.1v-.1l.2.1-.1.2h.1v-.1l.2.1-.2.4zm-.4-.9-.2.2.5.6v-.1l.2-.2-.1-.1v.1H35l.1-.2-.1-.1v.1l-.1-.1.1-.2h-.3z"/></g><path fill="#E9E744" d="m35 38.7-.4.4-.4-.5.4-.3.4.4z" clip-path="url(#j)"/><g clip-path="url(#j)"><path fill="#0A0000" d="m34.6 39.2-.5-.5.4-.4.5.4-.4.5zm-.1-.9-.3.4.4.4.3-.4-.4-.4z"/></g><path fill="#E9E744" d="m33.6 36.7.1.1-.1.1.1.1.1-.1.1.1-.1.1.1.1.1-.1.1.1-.1.3h-.1l-.5-.5v-.1l.2-.2z" clip-path="url(#j)"/><g clip-path="url(#j)"><path fill="#0A0000" d="m33.9 37.6-.6-.5v-.2l.2-.2.2.1-.1.2h.1v-.1l.3.1-.1.2h.1v-.1l.2.1-.3.4zm-.4-.9-.1.3.5.6v-.1l.2-.2-.1-.1v.1l-.2-.1.1-.2h-.1v.1l-.2-.1.1-.2-.2-.1z"/></g><path fill="#E9E744" d="m33.8 37.5-.4.4-.4-.5.4-.3z" clip-path="url(#j)"/><g clip-path="url(#j)"><path fill="#0A0000" d="m33.4 38-.5-.5.4-.4.5.4-.4.5zm-.1-.9-.3.4.4.4.3-.4-.4-.4z"/></g><path fill="#E9E744" d="M32.3 38.9c.6-.6 1.2-.3 1.2-.3s.3.6-.3 1.3l-.9-1z" clip-path="url(#j)"/><path fill="#E9E744" d="m32.7 37.7-.8.6.5.5c.6-.6 1.1-.2 1.1-.2s.3.6-.2 1.1l.5.5.6-.8-1.7-1.7z" clip-path="url(#j)"/><g clip-path="url(#j)"><path fill="#0A0000" d="m33.7 40.3-.5-.5c.5-.6.2-1.1.2-1.2 0 0-.2-.1-.4-.1s-.5.1-.7.3l-.5-.5.8-.7 1.7 1.7-.6 1zm-.2-1.7c0 .1.1.2.1.3 0 .2 0 .5-.3.8l.4.4.6-.8-.8-.7zm-.9-.8-.7.6.5.4c.3-.4.9-.4 1.1-.3l-.9-.7z"/></g><path fill="#E9E744" d="m31.8 38.3 1.9 1.9v.2c0 .1-.1.1-.2 0l-1.9-1.9v-.2h.2z" clip-path="url(#j)"/><g clip-path="url(#j)"><path fill="#0A0000" d="m33.6 40.5-2-1.9c-.1-.1 0-.2 0-.2l.1-.1 2 1.9c.1.1 0 .2 0 .2l-.1.1zm-1.9-2 1.9 2 .1-.1-1.9-2-.1.1z"/></g><path fill="#E9E744" d="M32.5 39c.4-.4.7-.2.7-.2s.2.4-.2.7l-.5-.5z" clip-path="url(#j)"/><g clip-path="url(#j)"><path fill="#0A0000" d="m33 39.6-.6-.5c.4-.5.8-.3.8-.3.1 0 .2.4-.2.8zm.1-.8c-.1 0-.3 0-.5.2l.5.4c.3-.3.2-.6.2-.7-.1.1-.1.1-.2.1z"/></g><path fill="#E9E744" d="m32.9 37.4 1.8 1.8v.2h-.2l-1.8-1.8v-.1c.1-.2.1-.2.2-.1z" clip-path="url(#j)"/><g clip-path="url(#j)"><path fill="#0A0000" d="m34.6 39.4-1.9-1.9c-.1-.1-.1-.1 0-.2h.2l1.8 1.8v.2l-.1.1zm-1.7-2-.1.1 1.9 1.9.1-.1-1.9-1.9z"/></g><path fill="#E9E744" d="m32.8 37.6 1.7 1.7v.1h-.1l-1.7-1.7v-.1c0-.1 0-.1.1 0z" clip-path="url(#j)"/><g clip-path="url(#j)"><path fill="#0A0000" d="m34.4 39.5-1.8-1.8c-.1-.1 0-.1 0-.2h.2l1.7 1.7c.1.1.1.1 0 .2l-.1.1zm-1.7-1.9-.1.1 1.8 1.8.1-.1-1.8-1.8z"/></g><path fill="#0A0000" d="M34.3 37.7c0-.1.1 0 0 0l-.1.3-.1-.1.2-.2zm.3.9c.1-.1.2 0 0 0v.2l-.1-.1.1-.1zm-1.2-1.2c.1-.1.2 0 0 0v.2l-.1-.1.1-.1z" clip-path="url(#j)"/><path fill="#E9E744" d="M34.9 29.2h.2v.1h.1v-.1h.2v.1h.1v-.1h.2v.3s0 .1-.1.1H35s-.1 0-.1-.1v-.3z" clip-path="url(#j)"/><g clip-path="url(#j)"><path fill="#0A0000" d="M35.7 29.6H35l-.1-.1v-.3h.2v.2h.1v-.1h.2v.2h.1v-.1h.2v.4-.2zm-.6-.4H35v.3l.8.1v-.4h-.2v.1h-.2v-.2h-.2v.1H35h.1z"/></g><path fill="#E9E744" d="M35.7 29.6v1H35l.1-1z" clip-path="url(#j)"/><g clip-path="url(#j)"><path fill="#0A0000" d="M35.7 30.7H35v-1.1h.6l.1 1.1zm-.1-1.1H35v1h.6v-1z"/></g><path fill="#E9E744" d="M35.8 29.7h.2v.1h.1v-.1h.2v.1h.1v-.1h.2v.3s0 .1-.1.1h-.7s-.1 0-.1-.1v-.3h.1z" clip-path="url(#j)"/><g clip-path="url(#j)"><path fill="#0A0000" d="M36.6 30.1h-.7l-.2-.1v-.3h.2v.2h.1v-.1h.2v.2h.1v-.1h.2v.4l.1-.2zm-.7-.4h-.2v.3l.7.1v-.4h-.1v.1h-.2v-.2h-.2v.1h-.2.2z"/></g><path fill="#E9E744" d="M36.5 30.1v.5h-.6v-.5z" clip-path="url(#j)"/><g clip-path="url(#j)"><path fill="#0A0000" d="M36.6 30.7h-.7v-.6h.7v.6zm-.1-.6h-.6v.5h.6v-.5z"/></g><path fill="#E9E744" d="M34.1 29.7h.2v.1h.1v-.1h.2v.1h.1v-.1h.3v.3s0 .1-.1.1h-.7s-.1 0-.1-.1v-.3z" clip-path="url(#j)"/><g clip-path="url(#j)"><path fill="#0A0000" d="M34.9 30.1h-.7l-.1-.1v-.3h.2v.2h.1v-.1h.2v.2h.1v-.1h.2v.4-.2zm-.7-.4H34v.3l.7.1.1-.1v-.3h-.2v.1h-.2v-.2h-.2v.1H34h.2z"/></g><path fill="#E9E744" d="M34.8 30.1v.5h-.6v-.5z" clip-path="url(#j)"/><g clip-path="url(#j)"><path fill="#0A0000" d="M34.1 30.7v-.6h.7l.1.6h-.8zm.7-.6h-.6v.5h.6v-.5z"/></g><path fill="#E9E744" d="M34.7 32.1c0-.9.6-1.1.6-1.1s.7.2.7 1.1h-1.3z" clip-path="url(#j)"/><path fill="#E9E744" d="m34.2 31.1-.1 1h.7c0-.8.6-1 .6-1s.6.2.6 1h.7l-.1-1h-2.4z" clip-path="url(#j)"/><g clip-path="url(#j)"><path fill="#0A0000" d="M36.7 32.1H36c-.1-.8-.6-1-.6-1s-.6.1-.6.9h-.7l.1-1h2.4l.1 1.1zm-1.4-1h-1.1l-.1 1h.6c0-.8.4-1 .6-1zm.1 0c.2.1.6.3.6 1h.6l-.1-1h-1.1z"/></g><path fill="#E9E744" d="M34 32.1h2.7c.1 0 .1.1.1.1 0 .1 0 .1-.1.1H34c-.1 0-.1-.1-.1-.1 0-.1.1-.1.1-.1z" clip-path="url(#j)"/><g clip-path="url(#j)"><path fill="#0A0000" d="M36.7 32.4H34c-.1 0-.1-.1-.1-.2s.1-.2.1-.2h2.7c.1 0 .1.1.1.2.1.1 0 .2-.1.2zm-2.7-.3v.2h2.7s.1 0 .1-.1l-2.8-.1z"/></g><path fill="#E9E744" d="M35 32.1c0-.5.4-.7.4-.7s.4.2.4.7H35z" clip-path="url(#j)"/><g clip-path="url(#j)"><path fill="#0A0000" d="M35.8 32.1H35c0-.6.3-.7.3-.8.1 0 .5.2.5.8zm-.5-.7s-.3.1-.3.6h.7c0-.4-.3-.6-.4-.6z"/></g><path fill="#E9E744" d="M34.1 30.6h2.6c.1 0 .1.1.1.1 0 .1 0 .1-.1.1h-2.6c-.1 0-.1 0-.1-.1 0 0 0-.1.1-.1z" clip-path="url(#j)"/><g clip-path="url(#j)"><path fill="#0A0000" d="M36.7 30.9h-2.6c-.1 0-.1-.1-.1-.2s.1-.1.1-.1h2.6c.1 0 .1.1.1.1l-.1.2zm-2.6-.2v.1h2.6s.1 0 .1-.1h-2.7z"/></g><path fill="#E9E744" d="M34.1 30.9h2.5c.1 0 .1.1.1.1 0 .1 0 .1-.1.1h-2.5L34 31c0-.1.1-.1.1-.1z" clip-path="url(#j)"/><g clip-path="url(#j)"><path fill="#0A0000" d="M36.6 31.1h-2.5c-.1 0-.1-.1-.1-.1 0-.1.1-.2.1-.2h2.5c.1 0 .1.1.1.2s0 .1-.1.1zm-2.5-.2v.1h2.5s.1 0 .1-.1h-2.6z"/></g><path fill="#0A0000" d="M35.3 29.9c0-.1.1-.1.1 0v.3h-.1v-.3zm.8.4c0-.1.1-.1.1 0v.2h-.1v-.2zm-1.6 0c0-.1.1-.1.1 0v.2h-.1v-.2z" clip-path="url(#j)"/><path fill="#E9E744" d="m21.2 37.5.1-.1.1.1.1-.1-.1-.1.1-.1.1.1.1-.1-.1-.1.1-.1.2.2v.1l-.5.5h-.1l-.1-.3z" clip-path="url(#j)"/><g clip-path="url(#j)"><path fill="#0A0000" d="m21.5 37.8-.3-.3.1-.2.2.1v-.1h-.1l.1-.2.2.1v-.1h-.1l.1-.2.3.3v.2l-.5.4zm-.2-.4-.1.1.2.2v-.1l.5-.5-.1-.1-.1.1h.1l-.1.2-.2-.1-.1.1h.1l-.1.2-.1-.1z"/></g><path fill="#E9E744" d="m22 37.3.8.7-.5.5-.7-.8z" clip-path="url(#j)"/><g clip-path="url(#j)"><path fill="#0A0000" d="m22.3 38.6-.7-.8.4-.5.8.7-.5.6zm-.3-1.2-.4.4.7.7.4-.5-.7-.6z"/></g><path fill="#E9E744" d="m22.2 37.3.1-.1.1.1.1-.1-.1-.1.1-.1.1.1.1-.1-.1-.1.1-.1.2.2v.1l-.5.5h-.1l-.1-.3z" clip-path="url(#j)"/><g clip-path="url(#j)"><path fill="#0A0000" d="m22.4 37.6-.3-.3.1-.2.2.1v-.1h-.1l.1-.2.2.1v-.1h-.1l.1-.2.3.2v.2l-.5.5zm-.1-.4-.1.1.3.2v-.1l.5-.4-.2-.3-.1.1h.1l-.1.2h-.2l-.1.1h.1l-.1.2-.1-.1z"/></g><path fill="#E9E744" d="m23 37.1.4.3-.5.5-.4-.4z" clip-path="url(#j)"/><g clip-path="url(#j)"><path fill="#0A0000" d="m22.9 38-.4-.4.4-.5.5.4-.5.5zm0-.9-.4.4.3.3.4-.4-.3-.3z"/></g><path fill="#E9E744" d="m21 38.5.1-.1.1.1.1-.1-.1-.1.1-.1.1.1.1-.1-.1-.2.1-.1.2.2v.1l-.5.5h-.1l-.1-.2z" clip-path="url(#j)"/><g clip-path="url(#j)"><path fill="#0A0000" d="m21.3 38.8-.3-.3.1-.2.2.1v-.1h-.1l.1-.2.2.1v-.1h-.1l.1-.2.3.2v.2l-.5.5zm-.2-.4-.1.1.3.2v-.1l.5-.5-.2-.3-.1.1h.1l-.1.2-.2-.1-.1.1h.1l-.1.2-.1.1z"/></g><path fill="#E9E744" d="m21.8 38.3.4.3-.5.5-.4-.4z" clip-path="url(#j)"/><g clip-path="url(#j)"><path fill="#0A0000" d="m21.7 39.2-.4-.4.4-.5.5.4-.5.5zm.1-.9-.4.4.4.3.4-.4-.4-.3z"/></g><path fill="#E9E744" d="M23.1 39.8c-.6-.6-.3-1.2-.3-1.2s.6-.3 1.2.3l-.9.9z" clip-path="url(#j)"/><path fill="#E9E744" d="m22 39.4.6.8.5-.5c-.6-.6-.2-1.1-.2-1.1s.6-.3 1.1.2l.5-.5-.8-.6-1.7 1.7z" clip-path="url(#j)"/><g clip-path="url(#j)"><path fill="#0A0000" d="m22.6 40.3-.6-.9 1.7-1.7.8.6-.5.5c-.3-.2-.5-.3-.8-.3-.2 0-.4.1-.4.1s-.3.5.2 1.1l-.4.6zm.2-1.7-.8.8.6.7.4-.4c-.3-.3-.4-.6-.3-.8.1-.1.1-.2.1-.3zm.5-.1c.3 0 .5.1.8.3l.4-.5-.8-.6-.8.8h.4z"/></g><path fill="#E9E744" d="m22.6 40.2 1.9-1.9h.2c0 .1.1.1 0 .2l-1.9 1.9h-.2v-.2z" clip-path="url(#j)"/><g clip-path="url(#j)"><path fill="#0A0000" d="m22.7 40.5-.1-.1c-.1-.1-.1-.2 0-.2l1.9-1.9h.2c.1.1.1.2 0 .2l-2 2zm1.9-2.2-1.9 1.9v.1h.1v-.1l1.9-1.9h-.1z"/></g><path fill="#E9E744" d="M23.3 39.5c-.4-.4-.2-.7-.2-.7s.4-.2.7.2l-.5.5z" clip-path="url(#j)"/><g clip-path="url(#j)"><path fill="#0A0000" d="M23.3 39.6c-.4-.4-.3-.8-.3-.8s.4-.2.8.2l-.5.6zm-.2-.8s-.1.3.2.6l.5-.5c-.4-.2-.7-.1-.7-.1z"/></g><path fill="#E9E744" d="m21.6 39.2 1.8-1.8h.2v.2l-1.8 1.8h-.1c-.1-.1-.1-.2-.1-.2z" clip-path="url(#j)"/><g clip-path="url(#j)"><path fill="#0A0000" d="m21.7 39.4-.1-.1v-.2l1.8-1.8h.2c.1.1.1.2 0 .2l-1.9 1.9zm0-.1 1.9-1.8v-.1h-.1l-1.9 1.8.1.1z"/></g><path fill="#E9E744" d="m21.8 39.3 1.7-1.7h.1v.1L22 39.5h-.1c-.1-.1-.1-.2-.1-.2z" clip-path="url(#j)"/><g clip-path="url(#j)"><path fill="#0A0000" d="m21.9 39.5-.1-.1c-.1-.1-.1-.1 0-.2l1.7-1.8h.2c.1.1.1.1 0 .2l-1.8 1.9zm0-.1 1.8-1.8v-.1h-.1l-1.8 1.8.1.1z"/></g><path fill="#0A0000" d="M22 37.8c-.1-.1 0-.2 0 0l.3.1-.1.1-.2-.2zm.9-.4c-.1 0 0-.1 0 0h.2l-.1.2-.1-.2zm-1.2 1.2c-.1 0 0-.1 0 0h.2l-.1.1-.1-.1z" clip-path="url(#j)"/></g></g></g></switch></svg>