<svg xmlns="http://www.w3.org/2000/svg" width="60" height="59.999"><defs><clipPath id="a"><path fill="none" d="M1008.886 22.8A29.956 29.956 0 1 0 1037.974 0a29.987 29.987 0 0 0-29.088 22.8" data-name="Path 4000"/></clipPath></defs><g data-name="Group 6538"><g data-name="Group 6489"><g clip-path="url(#a)" data-name="Group 6488" transform="translate(-1008 -.001)"><path fill="#fff" d="M1004.442.001h102.851v60h-102.851z" data-name="Rectangle 1784"/></g></g><g data-name="Group 6491"><g clip-path="url(#a)" data-name="Group 6490" transform="translate(-1008 -.001)"><path fill="#b51e25" d="m1022.464 0 30 19.992h54.828V0Z" data-name="Path 4001"/><path fill="#fff" d="M1058.465 23.992h48.828v-4h-54.829Z" data-name="Path 4002"/><path fill="#fff" d="M1052.464 40.009h54.828V36h-48.827Z" data-name="Path 4003"/><path fill="#001f71" d="m1052.464 40.009-30 19.992h84.828V40.009Z" data-name="Path 4004"/><path fill="#070303" d="M1004.442 19.993h11.965l-11.965-7.985Z" data-name="Path 4005"/><path fill="#070303" d="M1004.442 19.993v20.016h11.965l15-10.02-15-10Z" data-name="Path 4006"/><path fill="#070303" d="M1004.442 40.009v7.973l11.965-7.973Z" data-name="Path 4007"/><path fill="#e89a1a" d="m1004.442 12.008 26.968 17.981-26.968 17.993v4.8l34.181-22.793-34.181-22.781Z" data-name="Path 4008"/><path fill="#2f6239" d="M1004.442 0v7.208l34.181 22.781-34.181 22.793V60h10.813l36-24h56.038V23.992h-56.038l-36-23.992Z" data-name="Path 4009"/></g></g></g></svg>