<svg xmlns="http://www.w3.org/2000/svg" width="60" height="59.999"><defs><radialGradient id="b" cx=".5" cy=".475" r=".475" gradientUnits="objectBoundingBox"><stop offset="0" stop-color="#fff"/><stop offset=".781" stop-color="#fff"/><stop offset=".818" stop-color="#f9f8f7"/><stop offset=".875" stop-color="#e9e6e3"/><stop offset=".943" stop-color="#cfc8c1"/><stop offset="1" stop-color="#b6aba0"/></radialGradient><clipPath id="a"><path fill="none" d="M449.975 0a30.025 30.025 0 1 0 7.23.887 30 30 0 0 0-7.23-.887Z" data-name="Path 3979"/></clipPath></defs><g data-name="Group 6534"><g data-name="Group 6477"><g clip-path="url(#a)" data-name="Group 6476" transform="translate(-420 -.001)"><path fill="url(#b)" d="M0 0h66.189v63.094H0z" data-name="Rectangle 1777" transform="translate(416.904 .001)"/></g></g><path fill="#00285e" d="M.886 22.799a29.992 29.992 0 1 1 21.908 36.319A29.989 29.989 0 0 1 .886 22.799" data-name="Path 3980"/><path fill="#f3efea" d="m51.277 8.853-12.061 8.04V1.459q-.988-.318-2.01-.573a29.857 29.857 0 0 0-16.5.595v15.418L8.692 8.887a29.817 29.817 0 0 0-6.506 9.886l3.182 2.121H1.425c-.2.624-.379 1.256-.538 1.9a29.837 29.837 0 0 0 .63 16.61h3.93L2.3 41.499a30.173 30.173 0 0 0 6.6 9.82l11.8-7.868v15.064q1.025.334 2.088.6a29.854 29.854 0 0 0 16.422-.569V43.454l11.851 7.9a29.788 29.788 0 0 0 6.619-9.807l-3.206-2.148h4.008q.354-1.078.633-2.2a29.858 29.858 0 0 0-.534-16.311h-4.028l3.244-2.162a30.132 30.132 0 0 0-6.52-9.879" data-name="Path 3981"/><path fill="#df130d" d="M16.092 20.899 4.955 13.491a29.662 29.662 0 0 0-2 3.54l5.813 3.868ZM55 13.428a30.133 30.133 0 0 0-2.47-3.231L39.217 19.05v1.849h4.559Zm-49.961 33.2a30.094 30.094 0 0 0 2.476 3.223l13.192-8.773v-1.679H15.9Zm54.5-21.877H35.361V.492a29.829 29.829 0 0 0-10.8 0v24.257H.473a29.815 29.815 0 0 0 .045 10.8h24.043v23.944a29.817 29.817 0 0 0 10.8.023V35.545h24.115a29.855 29.855 0 0 0 .061-10.8M44.033 39.399l10.914 7.258a29.69 29.69 0 0 0 2.022-3.528l-5.611-3.73Z" data-name="Path 3982"/><path fill="#122c55" d="M39.216 4.581v1.945a3.443 3.443 0 0 0 .18-1.046 2.188 2.188 0 0 0-.18-.9" data-name="Path 3983"/></g></svg>