<svg xmlns="http://www.w3.org/2000/svg" xmlns:xlink="http://www.w3.org/1999/xlink" xml:space="preserve" viewBox="0 0 64 64"><switch><g><defs><path id="a" d="M2.9 24.8C6.9 8.7 23.1-1.1 39.2 2.9c16.1 4 25.9 20.2 21.9 36.3-4 16.1-20.2 25.9-36.3 21.9-16.1-4-25.9-20.2-21.9-36.3"/></defs><clipPath id="b"><use xlink:href="#a" overflow="visible"/></clipPath><g clip-path="url(#b)"><path fill="#FFF" d="M-5.9 0H70v65.6H-5.9z"/><path fill="#0A0000" d="m42.776 18.224 1.499-.997 2.825 4.247-1.499.997zM47.6 22.2l2.8 4.2-1.5 1-2.8-4.2zm-2.526-5.58 1.498-.998 6.155 9.237-1.498.998zm2.285-1.49 1.498-.998 2.826 4.246-1.499.997zM52.2 19.1l2.8 4.2-1.5 1-2.8-4.2zM13.596 37.637l1.497-.998 6.16 9.234-1.498.998zm-2.352 1.526 1.498-.998 2.829 4.243-1.498.999zm3.392 4.955 1.498-.997 2.826 4.245-1.498.998zM9.01 40.731l1.499-.998 6.156 9.236-1.498.998zm4.619-14.344 6.155-9.237 1.498.998-6.155 9.238zm-2.355-1.571 6.155-9.237 1.497.998-6.154 9.237zM9 23.303l6.152-9.24 1.499.998-6.152 9.24zm33.765 22.49 2.832-4.241 1.497 1-2.832 4.24zM46.1 40.8l2.8-4.2 1.5 1-2.8 4.2zm-1.068 6.515 2.828-4.244 1.498.998-2.828 4.244zM48.4 42.3l2.8-4.2 1.5 1.1-2.8 4.2zm-1.01 6.582 2.834-4.24 1.497 1-2.834 4.24zm3.299-4.97 2.826-4.245 1.498.997-2.826 4.245z"/><defs><path id="c" d="M-5.9 9.9H70v44.3H-5.9z"/></defs><clipPath id="d"><use xlink:href="#c" overflow="visible"/></clipPath><path fill="#AA1B37" d="M22.8 25.9c0 .1-.1.1-.1.2 0-.1.1-.2.1-.2" clip-path="url(#d)"/><g clip-path="url(#d)"><path fill="#AA1B37" d="M38.1 22.8c-5.1-3.4-12-2-15.3 3.1-1.7 2.5-1 6 1.5 7.7 2.5 1.7 6 1 7.7-1.5 1.7-2.5 5.1-3.2 7.7-1.5 2.5 1.7 3.2 5.1 1.5 7.7 3.4-5.3 2-12.1-3.1-15.5"/><path fill="#26376A" d="M22.8 25.9c-1.7 2.5-1 6 1.5 7.7 2.5 1.7 6 1 7.7-1.5 1.7-2.5 5.1-3.2 7.7-1.5 2.5 1.7 3.2 5.1 1.5 7.7-3.4 5.1-10.3 6.5-15.3 3.1-5.1-3.6-6.5-10.5-3.1-15.5"/></g><path fill="none" d="M-5.9 9.9H70v44.3H-5.9z"/></g><path fill="none" d="M2.9 24.8C6.9 8.7 23.1-1.1 39.2 2.9c16.1 4 25.9 20.2 21.9 36.3-4 16.1-20.2 25.9-36.3 21.9-16.1-4-25.9-20.2-21.9-36.3" clip-path="url(#b)"/><path fill="none" stroke="#A09F9F" stroke-miterlimit="10" stroke-width=".25" d="M2.9 24.8C6.9 8.7 23.1-1.1 39.2 2.9c16.1 4 25.9 20.2 21.9 36.3-4 16.1-20.2 25.9-36.3 21.9-16.1-4-25.9-20.2-21.9-36.3"/><defs><path id="e" d="M-81.1 24.8c4-16.1 20.2-25.9 36.3-21.9 16.1 4 25.9 20.2 21.9 36.3-4 16.1-20.2 25.9-36.3 21.9-16.1-4-25.9-20.2-21.9-36.3"/></defs><clipPath id="f"><use xlink:href="#e" overflow="visible"/></clipPath><g clip-path="url(#f)"><defs><path id="g" d="M-105.8.6H1.9v62.8h-107.7z"/></defs><clipPath id="h"><use xlink:href="#g" overflow="visible"/></clipPath><path fill="#FFF" d="M-105.8.6H1.9v62.8h-107.7z" clip-path="url(#h)"/><path fill="#DB8F47" d="M-105.8.6H1.9v20.9h-107.7z" clip-path="url(#h)"/><path fill="#3F8344" d="M-105.8 42.5H1.9v20.9h-107.7z" clip-path="url(#h)"/></g></g></switch></svg>