<svg xmlns="http://www.w3.org/2000/svg" width="60" height="60"><g data-name="Group 6530"><path fill="#0d2246" d="M0 29.999a30 30 0 1 1 30 30 30 30 0 0 1-30-30" data-name="Path 3920"/><path fill="#fff" d="M42.971 28.072v-3.113L30.656 18.75l12.315.063V9.468L30.78 9.72l12.191-6.162v-.559A29.717 29.717 0 0 0 35.887.584L20.2 8.909V1.676a29.7 29.7 0 0 0-9.27 5.19v1.983L9.5 8.118A29.392 29.392 0 0 0 .442 25.049l10.553-5.377v8.149h9.255v-8.209l16.736 8.46Z" data-name="Path 3921"/><path fill="#c90020" d="M43.035 11.399H18.214V2.441a29.722 29.722 0 0 0-5.228 2.88v6.078h-6.48A29.984 29.984 0 0 0 3 16.999h9.99v10.822h5.228V16.999h24.821Z" data-name="Path 3922"/><path fill="#c90020" d="M37.5.978 20.7 9.779h4.294l15.169-7.98Q38.838 1.323 37.5.978" data-name="Path 3923"/><path fill="#c90020" d="M10.5 18.862H6.33l-5.047 2.475c-.263.87-.492 1.748-.676 2.625Z" data-name="Path 3924"/><path fill="#c90020" d="m24.994 18.862 17.977 9.21v-2.145L28.6 18.862Z" data-name="Path 3925"/><path fill="#fff" d="m15.6 33.483-1.556 4.789-4.977-1.68 2.925 4.23L7.5 43.499l4.976.5-.435 4.852 3.548-3.483 3.607 3.75-.682-5.1 5.163-.375-4.541-2.8L22 36.547l-4.916 1.875Z" data-name="Path 3926"/><path fill="#fff" d="m59.531 24.75-1.155-.709.75-1.125c-.045-.195-.083-.375-.135-.581l-1.549.585-.682-2.25-.713 2.19-2.276-.75 1.339 1.939-2.052 1.222 2.277.229-.2 2.22 1.624-1.594 1.65 1.706-.318-2.333 1.522-.113c-.033-.225-.044-.435-.082-.637" data-name="Path 3927"/></g></svg>