<svg xmlns="http://www.w3.org/2000/svg" width="59.996" height="59.999"><g data-name="Group 6537"><path fill="#fff" d="M57.69 41.536a29.516 29.516 0 0 1-2.426 4.612H4.732a29.152 29.152 0 0 1-2.422-4.612Z" data-name="Path 3928"/><path fill="#951326" d="M59.19 36.92a29.372 29.372 0 0 1-1.5 4.616H2.31a29.784 29.784 0 0 1-1.5-4.616Z" data-name="Path 3929"/><path fill="#fff" d="M59.91 32.304a30.126 30.126 0 0 1-.72 4.616H.806a30.246 30.246 0 0 1-.72-4.616Z" data-name="Path 3930"/><path fill="#951326" d="M55.264 46.148a29.546 29.546 0 0 1-3.641 4.616H8.373a29.988 29.988 0 0 1-3.641-4.616Z" data-name="Path 3931"/><path fill="#951326" d="M45.968 55.383a29.932 29.932 0 0 1-31.94 0Z" data-name="Path 3932"/><path fill="#fff" d="M51.623 50.764a29.989 29.989 0 0 1-5.655 4.62h-31.94a30.353 30.353 0 0 1-5.655-4.62Z" data-name="Path 3933"/><path fill="#fff" d="M51.623 9.231H8.373a30.268 30.268 0 0 1 5.659-4.62h31.933a30.26 30.26 0 0 1 5.658 4.62" data-name="Path 3934"/><path fill="#951326" d="M45.964 4.612H14.031a29.405 29.405 0 0 1 2.962-1.646l.289-.135c.345-.161.694-.319 1.05-.473.158-.067.319-.127.472-.187a29.943 29.943 0 0 1 27.16 2.441" data-name="Path 3935"/><path fill="#951326" d="M55.264 13.84H4.732c.263-.409.536-.821.829-1.219a.874.874 0 0 1 .071-.1 30.557 30.557 0 0 1 2.741-3.288h43.25a29.758 29.758 0 0 1 3.641 4.608" data-name="Path 3936"/><path fill="#951326" d="M59.19 23.076H.806a30.185 30.185 0 0 1 1.5-4.616H57.69a29.686 29.686 0 0 1 1.5 4.616" data-name="Path 3937"/><path fill="#fff" d="M57.69 18.46H2.31c.12-.3.247-.592.375-.889.322-.708.671-1.406 1.05-2.081.307-.559.637-1.125.982-1.65h50.547a29.944 29.944 0 0 1 2.426 4.62" data-name="Path 3938"/><path fill="#fff" d="M59.91 27.692H.086a4.782 4.782 0 0 1 .057-.57 27.23 27.23 0 0 1 .661-4.046h58.384a30.126 30.126 0 0 1 .72 4.616" data-name="Path 3939"/><path fill="#951326" d="M59.998 29.999c0 .78-.026 1.549-.086 2.31H.086C.026 31.544 0 30.775 0 29.999s.026-1.541.086-2.3H59.91c.06.757.086 1.526.086 2.3" data-name="Path 3940"/><path fill="#252c58" d="M29.998-.001v32.3H.086C.026 31.538 0 30.769 0 29.993s.026-1.541.086-2.3a5 5 0 0 1 .056-.57c.045-.566.12-1.125.2-1.684.12-.8.274-1.59.461-2.362a30.149 30.149 0 0 1 1.5-4.616c.12-.3.248-.593.375-.889.322-.709.671-1.406 1.05-2.081.307-.559.637-1.125.982-1.65.263-.409.537-.821.829-1.219a.874.874 0 0 1 .071-.1 30.655 30.655 0 0 1 2.741-3.288 30.259 30.259 0 0 1 5.678-4.624 29.617 29.617 0 0 1 2.969-1.644l.289-.135a37.35 37.35 0 0 1 1.049-.472c.158-.068.319-.128.473-.188A29.794 29.794 0 0 1 29.998-.001" data-name="Path 3941"/><path fill="#fff" d="m26.198 1.537.427 1.294h1.365l-1.106.806.424 1.3-1.125-.806-1.1.806.42-1.3-1.088-.806h1.365Z" data-name="Path 3942"/><path fill="#fff" d="m19.607 4.612.1.326-.439-.326-.667-.487-.667.483-.435.326.1-.326.315-.975-.923-.667.289-.135h.9l.154-.473c.158-.067.319-.127.473-.187l.221.66h1.361l-1.1.806Z" data-name="Path 3943"/><path fill="#fff" d="m26.198 7.99.424 1.3h1.365l-1.1.8.424 1.3-1.125-.8-1.1.8.423-1.3-1.106-.8h1.365Z" data-name="Path 3944"/><path fill="#fff" d="m18.598 7.99.424 1.3h1.361l-1.1.8.424 1.3-1.1-.8-1.1.8.424-1.3-1.125-.8h1.369Z" data-name="Path 3945"/><path fill="#fff" d="m11.013 7.99.416 1.3h1.369l-1.106.8.423 1.3-1.1-.8-1.125.8.424-1.3-1.1-.8h1.365Z" data-name="Path 3946"/><path fill="#fff" d="m26.198 14.455.427 1.294h1.365l-1.1.8.424 1.3-1.125-.8-1.1.8.424-1.3-1.1-.8h1.365Z" data-name="Path 3947"/><path fill="#fff" d="m18.598 14.455.424 1.3h1.361l-1.1.8.424 1.3-1.1-.8-1.1.8.424-1.3-1.125-.8h1.369Z" data-name="Path 3948"/><path fill="#fff" d="m11.013 14.455.416 1.3h1.369l-1.106.8.423 1.3-1.1-.8-1.125.8.424-1.3-1.091-.806h1.365Z" data-name="Path 3949"/><path fill="#fff" d="m26.198 20.908.424 1.3h1.365l-1.1.807.424 1.293-1.125-.8-1.1.8.423-1.293-1.106-.807h1.365Z" data-name="Path 3951"/><path fill="#fff" d="m18.598 20.908.424 1.3h1.361l-1.1.807.424 1.293-1.1-.8-1.1.8.424-1.293-1.125-.807h1.369Z" data-name="Path 3952"/><path fill="#fff" d="m11.013 20.908.416 1.3h1.369l-1.106.807.423 1.293-1.1-.8-1.125.8.424-1.293-1.1-.807h1.365Z" data-name="Path 3953"/><path fill="#fff" d="m26.198 27.373.424 1.3h1.365l-1.1.8.424 1.3-1.125-.8-1.1.8.423-1.3-1.106-.8h1.365Z" data-name="Path 3955"/><path fill="#fff" d="m18.598 27.373.424 1.3h1.361l-1.1.8.424 1.3-1.1-.8-1.1.8.424-1.3-1.125-.8h1.369Z" data-name="Path 3956"/><path fill="#fff" d="m11.013 27.373.416 1.3h1.369l-1.106.8.423 1.3-1.1-.8-1.125.8.424-1.3-1.1-.8h1.365Z" data-name="Path 3957"/><path fill="#fff" d="m22.398 24.141.424 1.3h1.365l-1.1.81.416 1.3-1.1-.8-1.1.8.42-1.3-1.1-.81h1.365Z" data-name="Path 3959"/><path fill="#fff" d="m14.808 24.141.416 1.3h1.365l-1.1.81.423 1.3-1.1-.8-1.1.8.416-1.3-1.1-.8h1.365Z" data-name="Path 3960"/><path fill="#fff" d="m7.211 24.141.424 1.3h1.363l-1.107.81.417 1.3-1.1-.8-1.106.8.428-1.3-1.1-.8h1.365Z" data-name="Path 3961"/><path fill="#fff" d="m22.398 17.683.424 1.3h1.365l-1.1.8.416 1.3-1.1-.806-1.1.806.423-1.3-1.1-.8h1.365Z" data-name="Path 3963"/><path fill="#fff" d="m14.808 17.683.416 1.3h1.365l-1.1.8.423 1.3-1.1-.806-1.1.806.416-1.3-1.1-.8h1.365Z" data-name="Path 3964"/><path fill="#fff" d="m7.211 17.683.424 1.3h1.363l-1.1.8.416 1.3-1.1-.806-1.106.806.424-1.3-1.1-.8h1.365Z" data-name="Path 3965"/><path fill="#fff" d="m22.398 11.223.424 1.3h1.365l-1.1.8.416 1.3-1.1-.8-1.1.8.423-1.3-1.1-.8h1.365Z" data-name="Path 3966"/><path fill="#fff" d="m14.808 11.223.416 1.3h1.365l-1.1.8.423 1.3-1.1-.8-1.1.8.416-1.3-1.1-.8h1.365Z" data-name="Path 3967"/><path fill="#fff" d="m8.062 13.84.259.78-1.08-.78h-.068l-1.068.78.255-.78.168-.517-.967-.7a.874.874 0 0 1 .071-.1h1.151l.428-1.3.42 1.3h1.367l-1.124.8Z" data-name="Path 3968"/><path fill="#fff" d="m22.398 4.762.424 1.3h1.365l-1.1.807.416 1.293-1.1-.8-1.1.8.423-1.293-1.1-.807h1.365Z" data-name="Path 3969"/><path fill="#fff" d="m14.808 4.762.416 1.3h1.365l-1.1.807.423 1.293-1.1-.8-1.1.8.416-1.293-1.1-.807h1.365Z" data-name="Path 3970"/></g></svg>