<svg xmlns="http://www.w3.org/2000/svg" width="60" height="59.999"><g data-name="Group 6535"><path fill="#df130d" d="M.887 22.799a29.992 29.992 0 1 1 21.906 36.319A29.988 29.988 0 0 1 .887 22.799" data-name="Path 3984"/><path fill="#fff" d="M22.76 26.19a5.286 5.286 0 0 0-6.53-4.622c-2.6.695-3.6-1.259-3.966-3.787-3.277 5.132-.748 11.055 1.786 13.272 4.621 4.057 12.315 3.766 16.312-.909-3.894 2.158-7.284-1.248-7.6-3.954m8.942-4.514a5.284 5.284 0 0 0 2.3-7.661c-1.485-2.244.048-3.82 2.329-4.966-5.907-1.474-10.717 2.8-12.019 5.912-2.378 5.677.344 12.88 6.047 15.183-3.287-3.008-1.124-7.306 1.34-8.468m11.255-1.948c-6.128-.521-12.149 4.277-12.595 10.416 1.857-4.056 6.612-3.319 8.474-1.324a5.286 5.286 0 0 0 7.995-.161c1.678-2.1 3.653-1.13 5.439.694-.4-6.079-5.956-9.34-9.313-9.625m-8.731 18.071a5.288 5.288 0 0 0 2.6 7.564c2.518.952 2.2 3.126 1.006 5.386 5.66-2.255 7.064-8.533 6.311-11.82-1.388-5.994-7.806-10.244-13.784-8.786 4.428.522 5.192 5.267 3.863 7.656m-9.964-1.636a5.291 5.291 0 0 0-6.4 4.8c-.134 2.69-2.3 3.051-4.82 2.615 3.879 4.7 10.293 4.1 13.181 2.378 5.284-3.158 7.371-10.572 4.137-15.812.867 4.374-3.421 6.553-6.1 6.02" data-name="Path 3985"/><path fill="#df130d" d="m17.634 26.448.543-1.195-1.14.651-.974-.882.269 1.286-1.14.656 1.307.14.263 1.286.544-1.2 1.3.14Zm6.451 14.026-1.141.65-.974-.876.275 1.285-1.141.657 1.307.129.269 1.291.533-1.205 1.308.145-.975-.877Zm16.3-.964-1.135.662-.98-.877.275 1.281-1.135.656 1.307.14.274 1.28.533-1.2 1.3.134-.973-.876Zm3.552-14.611.527-1.195-1.129.656-.98-.871.28 1.28-1.141.662 1.313.134.274 1.281.534-1.2 1.3.129Zm-8-.517-1.162.457a7.209 7.209 0 0 0-4.358 4.755l-.054-.053-.234.234a6.941 6.941 0 0 1-3.182-5.49l-.075-1.216a8.674 8.674 0 0 1 .742-3.55 5.707 5.707 0 0 1 .737-1.238l-.016-.2-.2.022a8.048 8.048 0 0 0-1.544 4.971l.076 1.253a7.274 7.274 0 0 0 3.255 5.66l-.162.162.136.136a6.916 6.916 0 0 1-6.173 1.235l-1.173-.306a8.639 8.639 0 0 1-3.136-1.835 6.231 6.231 0 0 1-.942-1.092l-.193-.048-.049.193v.005a8.11 8.11 0 0 0 4.229 3.041l1.21.322a7.262 7.262 0 0 0 6.435-1.307l.258.258.018-.018a6.865 6.865 0 0 1-.744 6.157l-.656 1.022a8.638 8.638 0 0 1-2.706 2.421 5.9 5.9 0 0 1-1.33.565l-.107.166.172.108a8.072 8.072 0 0 0 4.2-3.093l.678-1.049a7.255 7.255 0 0 0 .727-6.526l.2-.195a6.93 6.93 0 0 1 5.752 2.6l.77.936a8.652 8.652 0 0 1 1.468 3.325 6.129 6.129 0 0 1 .135 1.436l.123.151.156-.129a8.048 8.048 0 0 0-1.657-4.944l-.791-.969a7.217 7.217 0 0 0-5.917-2.688l-.21-.209a6.971 6.971 0 0 1 4.255-4.721l1.13-.441a8.653 8.653 0 0 1 3.609-.388 5.877 5.877 0 0 1 1.41.324l.184-.076-.075-.183a8.029 8.029 0 0 0-5.214.054m-6.924-7.559.28 1.28.532-1.2 1.3.13-.979-.877.528-1.2-1.136.663-.979-.871.28 1.279-1.13.662Z" data-name="Path 3986"/></g></svg>