<svg xmlns="http://www.w3.org/2000/svg" xmlns:xlink="http://www.w3.org/1999/xlink" xml:space="preserve" viewBox="0 0 64 64"><switch><g><defs><path id="a" d="M2.9 24.8C6.9 8.7 23.1-1.1 39.2 2.9c16.1 4 25.9 20.2 21.9 36.3-4 16.1-20.2 25.9-36.3 21.9-16.1-4-25.9-20.2-21.9-36.3"/></defs><clipPath id="b"><use xlink:href="#a" overflow="visible"/></clipPath><g clip-path="url(#b)"><defs><path id="c" d="M-21.9 0H85.8v62.8H-21.9z"/></defs><clipPath id="d"><use xlink:href="#c" overflow="visible"/></clipPath><path fill="#B11831" d="M-21.9 0H85.8v31.4H-21.9z" clip-path="url(#d)"/><path fill="#FFF" d="M-21.9 31.4H85.8v31.4H-21.9z" clip-path="url(#d)"/></g><defs><path id="e" d="M-81.1 24.8c4-16.1 20.2-25.9 36.3-21.9 16.1 4 25.9 20.2 21.9 36.3-4 16.1-20.2 25.9-36.3 21.9-16.1-4-25.9-20.2-21.9-36.3"/></defs><clipPath id="f"><use xlink:href="#e" overflow="visible"/></clipPath><g clip-path="url(#f)"><defs><path id="g" d="M-84 .5H23.9v62.9H-84z"/></defs><clipPath id="h"><use xlink:href="#g" overflow="visible"/></clipPath><path fill="#25398E" d="M-84 .5H23.9V32H-84z" clip-path="url(#h)"/><path fill="#B11831" d="M-84 32H23.9v31.5H-84z" clip-path="url(#h)"/></g><path fill="none" stroke="#A09F9F" stroke-miterlimit="10" stroke-width=".25" d="M2.9 24.8C6.9 8.7 23.1-1.1 39.2 2.9c16.1 4 25.9 20.2 21.9 36.3-4 16.1-20.2 25.9-36.3 21.9-16.1-4-25.9-20.2-21.9-36.3"/></g></switch></svg>