<svg xmlns="http://www.w3.org/2000/svg" width="60" height="60"><defs><clipPath id="a"><circle cx="30" cy="30" r="30" fill="none" data-name="Ellipse 563" transform="translate(672 .001)"/></clipPath></defs><g data-name="Group 6528"><g clip-path="url(#a)" data-name="Group 6480" transform="translate(-672)"><path fill="#0d2246" d="M672 30a30 30 0 1 1 30 30 30 30 0 0 1-30-30" data-name="Path 3989"/><path fill="#c90020" d="m729.658 17.684 1.651 3.345 3.691.536-2.671 2.6.631 3.676-3.3-1.735-3.3 1.735.631-3.676-2.671-2.6 3.691-.536Z" data-name="Path 3990"/><path fill="none" stroke="#fff" d="m729.658 17.684 1.651 3.345 3.691.536-2.671 2.6.631 3.676-3.3-1.735-3.3 1.735.631-3.676-2.671-2.6 3.691-.536Z" data-name="Path 3991"/></g><path fill="#fff" d="M42.971 28.073V24.96l-12.315-6.209 12.315.063V9.469l-12.191.252 12.191-6.162V3A29.717 29.717 0 0 0 35.887.585L20.205 8.91V1.677a29.7 29.7 0 0 0-9.27 5.19V8.85L9.5 8.119A29.392 29.392 0 0 0 .44 25.05l10.553-5.377v8.149h9.255v-8.209l16.736 8.46Z" data-name="Path 3992"/><path fill="#c90020" d="M43.035 11.4H18.214V2.442a29.722 29.722 0 0 0-5.228 2.88V11.4h-6.48A29.984 29.984 0 0 0 3 17h9.99v10.822h5.228V17h24.821Z" data-name="Path 3993"/><path fill="#c90020" d="m37.5.979-16.8 8.8h4.294L40.162 1.8Q38.839 1.32 37.5.975" data-name="Path 3994"/><path fill="#c90020" d="m24.994 18.863 17.977 9.21v-2.145L28.6 18.863Z" data-name="Path 3996"/></g></svg>