<svg xmlns="http://www.w3.org/2000/svg" width="60" height="60"><g data-name="Group 6539"><path fill="#de0011" d="M60 29.999a30 30 0 1 1-30-30h3.48v.2A30.038 30.038 0 0 1 60 29.999" data-name="Path 3899"/><path fill="#00235a" d="M33.48-.001v30H0a30.034 30.034 0 0 1 30-30Z" data-name="Path 3900"/><path fill="#fff" d="M20.2 10.627a5.948 5.948 0 0 0-2.52 0l1.26-4.541Z" data-name="Path 3901"/><path fill="#fff" d="M17.179 10.762A5.783 5.783 0 0 0 15 12.022l-1.181-4.564Z" data-name="Path 3902"/><path fill="#fff" d="M14.625 12.375a5.868 5.868 0 0 0-1.256 2.175l-3.3-3.356Z" data-name="Path 3903"/><path fill="#fff" d="M13.106 16.323a5.77 5.77 0 0 0 .135 1.256l-4.537-1.256 4.537-1.253a5.75 5.75 0 0 0-.135 1.253" data-name="Path 3904"/><path fill="#fff" d="m14.625 20.25-4.556 1.185 3.3-3.375a5.9 5.9 0 0 0 1.256 2.19" data-name="Path 3905"/><path fill="#fff" d="m17.179 21.888-3.375 3.3 1.2-4.568a5.882 5.882 0 0 0 2.179 1.264" data-name="Path 3906"/><path fill="#fff" d="m20.194 22.023-1.252 4.538-1.26-4.538a6.06 6.06 0 0 0 1.26.135 5.991 5.991 0 0 0 1.252-.135" data-name="Path 3907"/><path fill="#fff" d="m24.056 25.192-3.375-3.3a5.857 5.857 0 0 0 2.194-1.263Z" data-name="Path 3908"/><path fill="#fff" d="m27.806 21.446-4.556-1.2a5.879 5.879 0 0 0 1.26-2.175Z" data-name="Path 3909"/><path fill="#fff" d="M24.634 17.58a5.9 5.9 0 0 0 0-2.509l4.545 1.253Z" data-name="Path 3910"/><path fill="#fff" d="m27.806 11.208-3.3 3.356a5.822 5.822 0 0 0-1.252-2.19Z" data-name="Path 3911"/><path fill="#fff" d="m24.056 7.458-1.181 4.564a5.751 5.751 0 0 0-2.183-1.26Z" data-name="Path 3912"/><path fill="#fff" d="M18.941 11.145a5.175 5.175 0 1 1-5.175 5.175 5.175 5.175 0 0 1 5.175-5.175" data-name="Path 3913"/></g></svg>