<svg xmlns="http://www.w3.org/2000/svg" xmlns:xlink="http://www.w3.org/1999/xlink" xml:space="preserve" viewBox="0 0 64 64"><switch><g><defs><path id="a" d="M86.9 24.8c4-16.1 20.2-25.9 36.3-21.9 16.1 4 25.9 20.2 21.9 36.3-4 16.1-20.2 25.9-36.3 21.9-16.1-4-25.9-20.2-21.9-36.3"/></defs><clipPath id="b"><use xlink:href="#a" overflow="visible"/></clipPath><g clip-path="url(#b)"><defs><path id="c" d="M62.1 0h107.7v62.8H62.1z"/></defs><clipPath id="d"><use xlink:href="#c" overflow="visible"/></clipPath><path fill="#B11831" d="M62.1 0h107.7v31.4H62.1z" clip-path="url(#d)"/><path fill="#FFF" d="M62.1 31.4h107.7v31.4H62.1z" clip-path="url(#d)"/></g><defs><path id="e" d="M-81.1 24.8c4-16.1 20.2-25.9 36.3-21.9 16.1 4 25.9 20.2 21.9 36.3-4 16.1-20.2 25.9-36.3 21.9-16.1-4-25.9-20.2-21.9-36.3"/></defs><clipPath id="f"><use xlink:href="#e" overflow="visible"/></clipPath><g clip-path="url(#f)"><defs><path id="g" d="M-110.3-2H6.3v68h-116.6z"/></defs><clipPath id="h"><use xlink:href="#g" overflow="visible"/></clipPath><path fill="#2F4381" d="M-110.3-2H6.3v68h-116.6z" clip-path="url(#h)"/><path fill="#FFF" d="M-110.3-2H6.3v45.4h-116.6z" clip-path="url(#h)"/><path fill="#972331" d="M-110.3-2H6.3v22.7h-116.6z" clip-path="url(#h)"/></g><defs><path id="i" d="M2.9 24.8C6.9 8.7 23.1-1.1 39.2 2.9c16.1 4 25.9 20.2 21.9 36.3-4 16.1-20.2 25.9-36.3 21.9-16.1-4-25.9-20.2-21.9-36.3"/></defs><clipPath id="j"><use xlink:href="#i" overflow="visible"/></clipPath><g clip-path="url(#j)"><defs><path id="k" d="M0 .5h107.9v62.9H0z"/></defs><clipPath id="l"><use xlink:href="#k" overflow="visible"/></clipPath><path fill="#25398E" d="M0 .5h107.9V32H0z" clip-path="url(#l)"/><path fill="#B11831" d="M0 32h107.9v31.5H0z" clip-path="url(#l)"/><path fill="#FFF" d="M0 .5v63L54.8 32z" clip-path="url(#l)"/><path fill="#EAC937" d="M7.4 57.4 5 56l-2.1 1.9.6-2.8L1 53.7l2.8-.2.6-2.8 1.1 2.6 2.8-.3-2.1 1.9zm7.4-31.1-2.1-3.5-1.2-.1 2.8 4 .5-.4zm-1.6 1.6-4.3-3.3-.2-1.9 1.7-.1L14 27l-.8.9zm-.7.8-3.6-2-.1-1.2 4 2.7-.3.5zm7.4-3.1 1.1-3.9-.7-.9-.9 4.8h.5zm-2.3 0-.7-5.4 1.3-1.5 1.3 1.2-.6 5.6-1.3.1zm-1 0-1.1-3.9.7-.9.9 4.8h-.5zm7.4 3.2 3.6-2 .2-1.2-4.1 2.7.3.5zm-1.6-1.7 3.4-4.2 1.9-.1v1.7L23.3 28l-.9-.9zm-.7-.6 2.1-3.5 1.2-.1-2.9 3.9-.4-.3zm2.9 7.2 3.9 1.1.9-.7-4.8-.9v.5zm0-2.3 5.4-.7 1.5 1.3-1.2 1.3-5.6-.6-.1-1.3zm-.1-1 3.9-1.1.9.7-4.7 1-.1-.6zm-2.9 7.3 2.1 3.5 1.2.1-2.8-4-.5.4zm1.6-1.6 4.3 3.3.2 1.9-1.7.1-3.7-4.4.9-.9zm.6-.8 3.5 2 .2 1.2-4-2.7.3-.5zm-7.3 3.1-1 3.9.7.9.8-4.8h-.5zm2.3 0 .7 5.4-1.2 1.5-1.3-1.2.6-5.6 1.2-.1zm1 0 1.1 3.9-.7.9-.9-4.8h.5zm-7.4-3.1-3.5 2-.2 1.2 4-2.8-.3-.4zm1.7 1.7-3.4 4.3-1.9.1-.1-1.7 4.4-3.5 1 .8zm.7.6-2 3.5-1.2.1 2.8-4 .4.4zm-3-7.2-3.9-1-.9.7 4.8.8v-.5zm0 2.2-5.4.7L4.9 32l1.2-1.3 5.6.6.1 1.3zm0 1-3.9 1.1L7 34l4.8-.9v.5z" clip-path="url(#l)"/><g clip-path="url(#l)"><defs><path id="m" d="M0 .5h107.9v62.9H0z"/></defs><clipPath id="n"><use xlink:href="#m" overflow="visible"/></clipPath><path fill="#EAC937" d="M18.2 25.4c3.7 0 6.6 3 6.6 6.6 0 3.7-3 6.7-6.6 6.7-3.7 0-6.6-3-6.6-6.7-.1-3.7 2.9-6.6 6.6-6.6M41 34.3l1.7-2.3-1.7-2.3 2.7.9 1.6-2.3v2.8l2.7.9-2.7.9v2.8l-1.6-2.3zM7.4 5.9 5 7.3 2.9 5.4l.6 2.8L1 9.6l2.8.3.6 2.7L5.5 10l2.8.3-2.1-1.8z" clip-path="url(#n)"/></g></g></g></switch></svg>